<?xml version="1.0" encoding="utf-8"?>
<svg version="1.1" xmlns="http://www.w3.org/2000/svg" xmlns:xlink="http://www.w3.org/1999/xlink" x="0px" y="0px"
	 viewBox="0 0 100 100" style="enable-background:new 0 0 100 100;" xml:space="preserve" height="100" width="100">
<style type="text/css">
	.st0{fill:#FFD112;}
	.st1{fill:#FF9F00;}
	.st2{fill:#D28407;}
	.st3{fill:#FFE955;}
	.st4{fill:#FFFFFF;}
	.st5{fill:#D0F6FF;}
	.st6{fill:#8FC9F7;}
	.st7{fill:#FF7195;}
	.st8{fill:#FF3445;}
	.st9{fill:#DD1265;}
	.st10{fill:#65B2FF;}
	.st11{fill:#0F9BE8;}
	.st12{fill:#0066E8;}
	.st13{fill:#474F6F;}
	.st14{fill:#323B5A;}
	.st15{fill:#065FC1;}
	.st16{fill:#C55835;}
	.st17{fill:#BA0D5C;}
</style>
<path class="st0" d="M100,50c0,15.3-6.9,29.1-17.8,38.2C73.5,95.6,62.3,100,50,100s-23.5-4.4-32.2-11.8C6.9,79.1,0,65.3,0,50C0,22.4,22.4,0,50,0S100,22.4,100,50z"/>
<path class="st1" d="M100,50c0,5.1-0.8,10-2.2,14.6C91.6,85.1,72.5,100,50,100c-20.4,0-38-12.2-45.7-29.8C1.5,64,0,57.2,0,50c0-9,2.4-17.5,6.6-24.8C15.2,40.2,31.4,50.4,50,50.4s34.8-10.1,43.4-25.2C97.6,32.5,100,41,100,50z"/>
<path class="st2" d="M94,73.8c-1.4,2.6-3,5-4.8,7.3c0,0-0.1,0.1-0.1,0.1C79.9,92.7,65.8,100,50,100s-29.9-7.3-39.1-18.8c0,0-0.1-0.1-0.1-0.1C9,78.8,7.4,76.4,6,73.8H94z"/>
<path class="st3" d="M77.6,48v43.7c-4.2,2.8-8.8,4.9-13.7,6.4c-4.4,1.3-9.1,2-13.9,2c-4.6,0-9-0.6-13.2-1.8c-0.2-0.1-0.5-0.1-0.7-0.2c-4.1-1.2-8.1-2.9-11.7-5.1c-0.7-0.4-1.4-0.8-2-1.3V52.1c0-2.2,1.8-4.1,4.1-4.1H77.6z"/>
<path class="st0" d="M77.6,48v43.7c-4.2,2.8-8.8,4.9-13.7,6.4c-4.4,1.3-9.1,2-13.9,2c-4.6,0-9-0.6-13.2-1.8V48H77.6z"/>
<path class="st1" d="M77.6,48v43.7c-4.2,2.8-8.8,4.9-13.7,6.4c-4.4,1.3-9.1,2-13.9,2V48H77.6z"/>
<path class="st4" d="M63.9,98c-4.4,1.3-9.1,2-13.9,2c-4.6,0-9-0.6-13.2-1.8c-0.2-0.1-0.5-0.1-0.7-0.2H63.9z"/>
<path class="st5" d="M63.9,98c-4.4,1.3-9.1,2-13.9,2c-4.6,0-9-0.6-13.2-1.8V98H63.9z"/>
<path class="st6" d="M63.9,98c-4.4,1.3-9.1,2-13.9,2v-2H63.9z"/>
<path class="st7" d="M77.6,38.7v50.2c0,0.1,0,0.1,0,0.2c0,0,0,0.1,0,0.1c0,0,0,0,0,0.1c0,0,0,0.1,0,0.1c0,0,0,0.1,0,0.1c0,0,0,0.1,0,0.1c0,0,0,0.1,0,0.1c0,0,0,0.1,0,0.1c0,0.1,0,0.1-0.1,0.2c0,0.1,0,0.1-0.1,0.2c0,0,0,0.1-0.1,0.1c0,0.1-0.1,0.2-0.1,0.3c0,0,0,0.1-0.1,0.1c0,0,0,0.1,0,0.1c0,0.1-0.1,0.1-0.1,0.2c0,0,0,0.1-0.1,0.1c0,0,0,0.1-0.1,0.1c0,0.1-0.1,0.1-0.1,0.2c0,0-0.1,0.1-0.1,0.1c0,0,0,0,0,0l0,0c0,0,0,0.1-0.1,0.1c0,0,0,0.1-0.1,0.1c-0.1,0.1-0.1,0.1-0.2,0.2c-0.1,0-0.1,0.1-0.2,0.1c0,0-0.1,0.1-0.2,0.1c0,0-0.1,0.1-0.1,0.1c0,0,0,0,0,0c0,0-0.1,0.1-0.1,0.1c-0.1,0.1-0.2,0.1-0.3,0.2
	c-0.1,0-0.1,0.1-0.2,0.1c-0.1,0-0.1,0.1-0.2,0.1c0,0-0.1,0-0.1,0c0,0-0.1,0-0.1,0c-0.1,0-0.1,0-0.2,0.1c0,0,0,0-0.1,0
	c0,0-0.1,0-0.1,0c0,0-0.1,0-0.1,0c0,0-0.1,0-0.1,0c0,0,0,0-0.1,0c0,0-0.1,0-0.1,0c0,0-0.1,0-0.1,0c-0.1,0-0.1,0-0.2,0H24.4
	c-0.7-0.4-1.4-0.8-2-1.3v-57h51.2C75.8,34.7,77.6,36.5,77.6,38.7z"/>
<path class="st8" d="M77.6,38.7v50.2c0,2.2-1.8,4.1-4.1,4.1H36.8V34.7h36.7C75.8,34.7,77.6,36.5,77.6,38.7z"/>
<path class="st9" d="M77.6,38.7v50.2c0,2.2-1.8,4.1-4.1,4.1H50V34.7h23.5C75.8,34.7,77.6,36.5,77.6,38.7z"/>
<path class="st4" d="M77.6,88.7v0.2c0,0.1,0,0.1,0,0.2c0,0,0,0.1,0,0.1c0,0,0,0,0,0.1c0,0,0,0.1,0,0.1
	c0,0,0,0.1,0,0.1c0,0,0,0.1,0,0.1c0,0,0,0.1,0,0.1c0,0,0,0.1,0,0.1c0,0.1,0,0.1-0.1,0.2c0,0.1,0,0.1-0.1,0.2c0,0,0,0.1-0.1,0.1
	c0,0.1-0.1,0.2-0.1,0.3c0,0,0,0.1-0.1,0.1c0,0,0,0.1,0,0.1c0,0.1-0.1,0.1-0.1,0.2c0,0,0,0.1-0.1,0.1c0,0,0,0.1-0.1,0.1
	c0,0.1-0.1,0.1-0.1,0.2c0,0-0.1,0.1-0.1,0.1c0,0,0,0,0,0l0,0c0,0,0,0.1-0.1,0.1c0,0,0,0.1-0.1,0.1c-0.1,0.1-0.1,0.1-0.2,0.2
	c-0.1,0-0.1,0.1-0.2,0.1c0,0-0.1,0.1-0.2,0.1c0,0-0.1,0.1-0.1,0.1c0,0,0,0,0,0c0,0-0.1,0.1-0.1,0.1c-0.1,0.1-0.2,0.1-0.3,0.2
	c-0.1,0-0.1,0.1-0.2,0.1c-0.1,0-0.1,0.1-0.2,0.1c0,0-0.1,0-0.1,0c0,0-0.1,0-0.1,0c-0.1,0-0.1,0-0.2,0.1c0,0,0,0-0.1,0
	c0,0-0.1,0-0.1,0c0,0-0.1,0-0.1,0c0,0-0.1,0-0.1,0c0,0,0,0-0.1,0c0,0-0.1,0-0.1,0c0,0-0.1,0-0.1,0c-0.1,0-0.1,0-0.2,0H24.4
	c-0.7-0.4-1.4-0.8-2-1.3v-7h51.2C75.8,84.7,77.6,86.5,77.6,88.7z"/>
<path class="st5" d="M77.6,88.7v0.2c0,2.2-1.8,4.1-4.1,4.1H36.8v-8.3h36.7C75.8,84.7,77.6,86.5,77.6,88.7z"/>
<path class="st10" d="M77.6,25.6V80H26.5c-2.2,0-4.1-1.8-4.1-4.1V25.8c0-2.2,1.8-4.1,4.1-4.1h47.3C75.9,21.7,77.6,23.5,77.6,25.6z"/>
<path class="st11" d="M77.6,25.6V80H36.8V21.7h36.9C75.9,21.7,77.6,23.5,77.6,25.6z"/>
<path class="st12" d="M77.6,25.6V80H50V21.7h23.8C75.9,21.7,77.6,23.5,77.6,25.6z"/>
<path class="st4" d="M77.6,71.7V80H26.5c-2.2,0-4.1-1.8-4.1-4.1v-0.2c0-2.2,1.8-4.1,4.1-4.1H77.6z"/>
<polygon class="st5" points="36.8,71.7 77.6,71.7 77.6,80 36.8,80 "/>
<polygon class="st6" points="50,71.7 77.6,71.7 77.6,80 50,80 "/>
<path class="st13" d="M65.8,32.6v11.7c0,1.3-1.1,2.4-2.4,2.4H36.5c-1.3,0-2.4-1.1-2.4-2.4V32.6c0-1.3,1.1-2.4,2.4-2.4h26.9C64.8,30.2,65.8,31.3,65.8,32.6z"/>
<path class="st14" d="M65.8,32.6v11.7c0,1.3-1.1,2.4-2.4,2.4H50V30.2h13.5C64.8,30.2,65.8,31.3,65.8,32.6z"/>
<path class="st4" d="M62.8,35.2v6.6c0,1-0.8,1.8-1.8,1.8H38.9c-1,0-1.8-0.8-1.8-1.8v-6.6c0-1,0.8-1.8,1.8-1.8h22.1C62,33.4,62.8,34.2,62.8,35.2z"/>
<path class="st5" d="M62.8,35.2v6.6c0,1-0.8,1.8-1.8,1.8H50V33.4h11.1C62,33.4,62.8,34.2,62.8,35.2z"/>
<path class="st6" d="M77.6,88.7v0.2c0,2.2-1.8,4.1-4.1,4.1H50v-8.3h23.5C75.8,84.7,77.6,86.5,77.6,88.7z"/>
<path class="st11" d="M24.3,75.8V76c0,1.2,0.9,2.1,2.1,2.1h51.2v2H26.5c-2.2,0-4.1-1.8-4.1-4.1v-0.2c0-2.2,1.8-4.1,4.1-4.1h51.2v2H26.5C25.3,73.7,24.3,74.6,24.3,75.8z"/>
<polygon class="st12" points="36.8,71.7 77.6,71.7 77.6,73.7 36.8,73.7 "/>
<polygon class="st12" points="36.8,78.1 77.6,78.1 77.6,80 36.8,80 "/>
<polygon class="st15" points="50,71.7 77.6,71.7 77.6,73.7 50,73.7 "/>
<polygon class="st15" points="50,78.1 77.6,78.1 77.6,80 50,80 "/>
<path class="st0" d="M63.9,98c-4.4,1.3-9.1,2-13.9,2c-4.6,0-9-0.6-13.2-1.8c-0.2-0.1-0.5-0.1-0.7-0.2H63.9z"/>
<path class="st1" d="M63.9,98c-4.4,1.3-9.1,2-13.9,2c-4.6,0-9-0.6-13.2-1.8V98H63.9z"/>
<path class="st16" d="M63.9,98c-4.4,1.3-9.1,2-13.9,2v-2H63.9z"/>
<path class="st8" d="M77.6,88.7v0.2c0,0.1,0,0.1,0,0.2c0,0,0,0.1,0,0.1c0,0,0,0,0,0.1c0,0,0,0.1,0,0.1
	c0,0,0,0.1,0,0.1c0,0,0,0.1,0,0.1c0,0,0,0.1,0,0.1c0,0,0,0.1,0,0.1c0,0.1,0,0.1-0.1,0.2c0,0.1,0,0.1-0.1,0.2c0,0,0,0.1-0.1,0.1
	c0,0.1-0.1,0.2-0.1,0.3c0,0,0,0.1-0.1,0.1c0,0,0,0.1,0,0.1c0,0.1-0.1,0.1-0.1,0.2c0,0,0,0.1-0.1,0.1c0,0,0,0.1-0.1,0.1
	c0,0.1-0.1,0.1-0.1,0.2c0,0-0.1,0.1-0.1,0.1c0,0,0,0,0,0l0,0c0,0,0,0.1-0.1,0.1c0,0,0,0.1-0.1,0.1c-0.1,0.1-0.1,0.1-0.2,0.2
	c-0.1,0-0.1,0.1-0.2,0.1c0,0-0.1,0.1-0.2,0.1c0,0-0.1,0.1-0.1,0.1c0,0,0,0,0,0c0,0,0,0-0.1,0c0,0-0.1,0-0.1,0.1
	c-0.1,0.1-0.2,0.1-0.3,0.2c-0.1,0-0.1,0.1-0.2,0.1c-0.1,0-0.1,0.1-0.2,0.1c0,0-0.1,0-0.1,0c0,0-0.1,0-0.1,0c-0.1,0-0.1,0-0.2,0.1
	c0,0,0,0-0.1,0c0,0-0.1,0-0.1,0c0,0-0.1,0-0.1,0c0,0-0.1,0-0.1,0c0,0,0,0-0.1,0c0,0-0.1,0-0.1,0c0,0-0.1,0-0.1,0c-0.1,0-0.1,0-0.2,0
	H24.4c-0.7-0.4-1.4-0.8-2-1.3V91h51.2c1.2,0,2.1-0.9,2.1-2.1v-0.2c0-1.2-0.9-2.1-2.1-2.1H22.4v-2h51.2
	C75.8,84.7,77.6,86.5,77.6,88.7z"/>
<path class="st9" d="M77.6,88.7v0.2c0,0.1,0,0.1,0,0.2c0,0,0,0.1,0,0.1c0,0.1,0,0.1,0,0.2c0,0,0,0.1,0,0.1c0,0,0,0.1,0,0.1c0,0,0,0.1,0,0.1c0,0,0,0.1,0,0.1c0,0.1,0,0.1-0.1,0.2c0,0.1,0,0.1-0.1,0.2c0,0.1-0.1,0.3-0.2,0.4c0,0.1-0.1,0.1-0.1,0.2c0,0.1-0.1,0.1-0.1,0.2c0,0.1-0.1,0.1-0.1,0.2c0,0.1-0.1,0.1-0.1,0.2c0,0.1-0.1,0.1-0.1,0.2l0,0c0,0.1-0.1,0.1-0.1,0.2c-0.1,0.1-0.1,0.1-0.2,0.2c-0.1,0-0.1,0.1-0.2,0.1c0,0-0.1,0.1-0.2,0.1c0,0-0.1,0.1-0.1,0.1c0,0,0,0,0,0c0,0-0.1,0.1-0.1,0.1c-0.1,0.1-0.2,0.1-0.3,0.2c-0.1,0.1-0.3,0.1-0.4,0.2c-0.1,0-0.1,0-0.2,0.1c-0.1,0-0.1,0-0.2,0.1c0,0,0,0-0.1,0c0,0-0.1,0-0.1,0c0,0-0.1,0-0.1,0c0,0-0.1,0-0.1,0c0,0,0,0-0.1,0c0,0-0.1,0-0.1,0c0,0-0.1,0-0.1,0c-0.1,0-0.1,0-0.2,0H36.8v-2h36.7c1.2,0,2.1-0.9,2.1-2.1v-0.2c0-1.2-0.9-2.1-2.1-2.1H36.8v-2h36.7C75.8,84.7,77.6,86.5,77.6,88.7z"/>
<path class="st17" d="M77.6,88.7v0.2c0,1.3-0.6,2.4-1.5,3.1c-0.1,0.1-0.3,0.2-0.4,0.3c-0.1,0.1-0.3,0.2-0.4,0.2c-0.5,0.3-1.1,0.4-1.8,0.4H50v-2h23.5c1.2,0,2.1-0.9,2.1-2.1v-0.2c0-1.2-0.9-2.1-2.1-2.1H50v-2h23.5C75.8,84.7,77.6,86.5,77.6,88.7z"/>
</svg>
