<svg data-name="Layer 1" xmlns="http://www.w3.org/2000/svg" xmlns:xlink="http://www.w3.org/1999/xlink" viewBox="0 0 1300 530"><defs><style>.cls-1{fill:#fff;}.cls-2{fill:#3de783;opacity:0.12;}.cls-2,.cls-3,.cls-5,.cls-7{isolation:isolate;}.cls-3{opacity:0.7;}.cls-4{fill:#a6f3c6;}.cls-5{fill:#c9ead6;opacity:0.8;}.cls-6{fill:#d9f3e4;}.cls-7{opacity:0.5;}.cls-8{fill:#5eea99;}.cls-9{fill:#58db8f;}.cls-10{fill:url(#linear-gradient);}.cls-11{fill:url(#linear-gradient-2);}.cls-12{fill:#8f4299;}.cls-13{mask:url(#mask);}.cls-14{fill:#81328c;}.cls-15{mask:url(#mask-2);}.cls-16{fill:#ffb37f;}.cls-17{fill:#ffc695;}.cls-18{mask:url(#mask-3);}.cls-19{fill:#f29555;}.cls-20{mask:url(#mask-4-4);}.cls-21{fill:#e3835a;}.cls-22{fill:#c6dfe0;}.cls-23{fill:#e1f7f9;}.cls-24{fill:#ffa87a;}.cls-25{mask:url(#mask-5);}.cls-26{fill:#323b5a;}.cls-27{fill:url(#linear-gradient-3);}.cls-28{fill:#277cc2;}.cls-29{mask:url(#mask-8);}.cls-30{fill:#1e6cab;}.cls-31{mask:url(#mask-9);}.cls-32{mask:url(#mask-10);}.cls-33{mask:url(#mask-11);}.cls-34{fill:#3a2c24;}.cls-35{mask:url(#mask-12);}.cls-36{fill:#4c3f38;}.cls-37{mask:url(#mask-17);}.cls-38{fill:#f5ae71;}.cls-39{fill:#cc7452;}.cls-40{mask:url(#mask-23);}.cls-41{fill:#bd6b4c;}.cls-42{mask:url(#mask-24);}.cls-43{fill:red;}.cls-44{fill:#3281a0;}.cls-45{fill:#4198c4;}.cls-46{fill:#feab63;}.cls-47{fill:#474f6f;}.cls-48{fill:url(#linear-gradient-4);}.cls-49{fill:#ba2965;}.cls-50{mask:url(#mask-25);}.cls-51{fill:#9f2356;}.cls-52{mask:url(#mask-26);}.cls-53{fill:#f2e5ad;}.cls-54{fill:#ea9052;}.cls-55{fill:#f5a46c;}.cls-56{fill:#ffd4dd;}.cls-57{fill:#fcb679;}.cls-58{mask:url(#mask-27);}.cls-59{fill:#ff3445;}.cls-60{fill:#dd1265;}.cls-61{fill:#fcf2c8;}.cls-62{fill:#ff789f;}.cls-63{fill:#ffabbf;}.cls-64{fill:#fffacc;}.cls-65{fill:#ff5959;}.cls-66{fill:#e0dbb3;}.cls-67{fill:#d9d3ad;}.cls-68{fill:#3c6468;}.cls-69{fill:#2f575b;}.cls-70{fill:#cc4a4a;}.cls-71{fill:#c1c1c1;}.cls-72{fill:#aaa9a4;}.cls-73{fill:#d6bcae;}.cls-74{fill:#25343a;}.cls-75{fill:#bda599;}.cls-76{mask:url(#mask-29);}.cls-77{fill:#884d01;}.cls-78{fill:#ffb657;}.cls-79{fill:#ffa834;}.cls-80{fill:#1d1d1f;}.cls-81{fill:#e0e0e2;}.cls-82{fill:#013f8a;}.cls-83{fill:#f91;}.cls-84{mask:url(#mask-30);}.cls-85{fill:#f25757;}.cls-86{fill:#e9ffff;}.cls-87{fill:#d7f9f7;}.cls-88{fill:#c5ede9;}.cls-89{fill:#bae4e5;}.cls-90{fill:#7abcb8;}.cls-91{fill:url(#linear-gradient-5);}.cls-92{fill:url(#linear-gradient-6);}.cls-93{fill:url(#linear-gradient-7);}.cls-94{fill:url(#linear-gradient-8);}.cls-95{mask:url(#mask-31);}.cls-96{mask:url(#mask-33);}.cls-97{fill:#e2883a;}.cls-98{mask:url(#mask-35);}</style><linearGradient id="linear-gradient" x1="346.38" y1="565.67" x2="346.38" y2="564.67" gradientTransform="matrix(85, 0, 0, -103, -28362, 58335)" gradientUnits="userSpaceOnUse"><stop offset="0" stop-color="#ffa56f"/><stop offset="1" stop-color="#ff7e4b"/></linearGradient><linearGradient id="linear-gradient-2" x1="346.33" y1="565.68" x2="346.33" y2="564.68" gradientTransform="matrix(84, 0, 0, -105, -28817.01, 59495)" gradientUnits="userSpaceOnUse"><stop offset="0" stop-color="#f15eff"/><stop offset="1" stop-color="#b941c9"/></linearGradient><mask id="mask" x="242" y="111" width="66" height="68" maskUnits="userSpaceOnUse"><g id="mask-4"><circle id="path-3" class="cls-1" cx="275" cy="141" r="30"/></g></mask><mask id="mask-2" x="245" y="111" width="60" height="62.91" maskUnits="userSpaceOnUse"><g id="mask-4-2" data-name="mask-4"><circle id="path-3-2" data-name="path-3" class="cls-1" cx="275" cy="141" r="30"/></g></mask><mask id="mask-3" x="245" y="111" width="60" height="62" maskUnits="userSpaceOnUse"><g id="mask-4-3" data-name="mask-4"><circle id="path-3-3" data-name="path-3" class="cls-1" cx="275" cy="141" r="30"/></g></mask><mask id="mask-4-4" x="245" y="111" width="60" height="62.45" maskUnits="userSpaceOnUse"><g id="mask-4-5" data-name="mask-4"><circle id="path-3-4" data-name="path-3" class="cls-1" cx="275" cy="141" r="30"/></g></mask><mask id="mask-5" x="245" y="111" width="60" height="60" maskUnits="userSpaceOnUse"><g id="mask-4-6" data-name="mask-4"><circle id="path-3-5" data-name="path-3" class="cls-1" cx="275" cy="141" r="30"/></g></mask><linearGradient id="linear-gradient-3" x1="346.37" y1="565.67" x2="346.37" y2="564.67" gradientTransform="matrix(84.72, 0, 0, -102.91, -28448, 58210.93)" gradientUnits="userSpaceOnUse"><stop offset="0" stop-color="#3aa5ff"/><stop offset="1" stop-color="#0070cc"/></linearGradient><mask id="mask-8" x="863" y="12" width="66" height="73" maskUnits="userSpaceOnUse"><g id="mask-7-2" data-name="mask-7"><circle id="path-6" class="cls-1" cx="896" cy="42" r="30"/></g></mask><mask id="mask-9" x="866" y="12" width="60" height="67.78" maskUnits="userSpaceOnUse"><g id="mask-7-3" data-name="mask-7"><circle id="path-6-2" data-name="path-6" class="cls-1" cx="896" cy="42" r="30"/></g></mask><mask id="mask-10" x="866" y="12" width="60" height="67" maskUnits="userSpaceOnUse"><g id="mask-7-4" data-name="mask-7"><circle id="path-6-3" data-name="path-6" class="cls-1" cx="896" cy="42" r="30"/></g></mask><mask id="mask-11" x="866" y="12" width="60" height="67.75" maskUnits="userSpaceOnUse"><g id="mask-7-5" data-name="mask-7"><circle id="path-6-4" data-name="path-6" class="cls-1" cx="896" cy="42" r="30"/></g></mask><mask id="mask-12" x="866" y="12" width="60" height="68" maskUnits="userSpaceOnUse"><g id="mask-7-6" data-name="mask-7"><circle id="path-6-5" data-name="path-6" class="cls-1" cx="896" cy="42" r="30"/></g></mask><mask id="mask-17" x="866" y="12" width="60" height="60" maskUnits="userSpaceOnUse"><g id="mask-7-11" data-name="mask-7"><circle id="path-6-10" data-name="path-6" class="cls-1" cx="896" cy="42" r="30"/></g></mask><mask id="mask-23" x="1043" y="83" width="67" height="65" maskUnits="userSpaceOnUse"><g id="mask-9-2" data-name="mask-9"><circle id="path-8" class="cls-1" cx="1080" cy="113" r="30"/></g></mask><mask id="mask-24" x="1050" y="83" width="60" height="61.52" maskUnits="userSpaceOnUse"><g id="mask-9-3" data-name="mask-9"><circle id="path-8-2" data-name="path-8" class="cls-1" cx="1080" cy="113" r="30"/></g></mask><linearGradient id="linear-gradient-4" x1="346.38" y1="565.67" x2="346.38" y2="564.67" gradientTransform="matrix(85, 0, 0, -103, -29022, 58273)" gradientUnits="userSpaceOnUse"><stop offset="0" stop-color="#f30d8e"/><stop offset="1" stop-color="#e00d64"/></linearGradient><mask id="mask-25" x="388" y="21" width="66" height="65" maskUnits="userSpaceOnUse"><g id="mask-12-2" data-name="mask-12"><circle id="path-11" class="cls-1" cx="420" cy="51" r="30"/></g></mask><mask id="mask-26" x="390" y="21" width="60" height="68.85" maskUnits="userSpaceOnUse"><g id="mask-12-3" data-name="mask-12"><circle id="path-11-2" data-name="path-11" class="cls-1" cx="420" cy="51" r="30"/></g></mask><mask id="mask-27" x="415.59" y="64.88" width="10.76" height="3.86" maskUnits="userSpaceOnUse"><g id="mask-14-2" data-name="mask-14"><path id="path-13" class="cls-1" d="M417,64.88c-1.19,0-1.82,1.24-1,2A7.16,7.16,0,0,0,417.72,68a7.77,7.77,0,0,0,6.49,0A7,7,0,0,0,426,66.87c.82-.75.18-2-1-2Z"/></g></mask><mask id="mask-29" x="654.18" y="175.37" width="6.12" height="3.54" maskUnits="userSpaceOnUse"><g id="mask-16-2" data-name="mask-16"><polygon id="path-15" class="cls-1" points="654.18 175.37 660.3 175.37 660.3 178.91 654.18 178.91 654.18 175.37"/></g></mask><mask id="mask-30" x="747.22" y="79.97" width="7.44" height="5.19" maskUnits="userSpaceOnUse"><g id="mask-18-2" data-name="mask-18"><polygon id="path-17" class="cls-1" points="747.22 79.97 754.65 79.97 754.65 85.16 747.22 85.16 747.22 79.97"/></g></mask><linearGradient id="linear-gradient-5" x1="347.72" y1="564.76" x2="347.97" y2="564.55" gradientTransform="matrix(137, 0, 0, -38, -47616, 21594)" gradientUnits="userSpaceOnUse"><stop offset="0" stop-color="#fff"/><stop offset="1" stop-color="#a6f3c6"/></linearGradient><linearGradient id="linear-gradient-6" x1="348.01" y1="562.34" x2="347.82" y2="562.54" gradientTransform="matrix(128.11, 0, 0, -11.36, -43321.39, 6521.81)" xlink:href="#linear-gradient-5"/><linearGradient id="linear-gradient-7" x1="349.38" y1="564.1" x2="349.21" y2="563.94" gradientTransform="matrix(278, 0, 0, -26, -95949, 14720)" xlink:href="#linear-gradient-5"/><linearGradient id="linear-gradient-8" x1="345.9" y1="564.83" x2="346.26" y2="565.1" gradientTransform="matrix(79, 0, 0, -71, -27300, 40305)" xlink:href="#linear-gradient-5"/><mask id="mask-31" x="270" y="154" width="11" height="4" maskUnits="userSpaceOnUse"><g id="mask-24-2" data-name="mask-24"><path id="path-23" class="cls-1" d="M271.4,154a1.21,1.21,0,0,0-1,2.06,7.28,7.28,0,0,0,1.8,1.21,7.91,7.91,0,0,0,6.64,0,7.28,7.28,0,0,0,1.8-1.21,1.21,1.21,0,0,0-1-2.06Z"/></g></mask><mask id="mask-33" x="891" y="55" width="11" height="4" maskUnits="userSpaceOnUse"><g id="mask-26-2" data-name="mask-26"><path id="path-25" class="cls-1" d="M892.4,55a1.21,1.21,0,0,0-1,2.06,7.28,7.28,0,0,0,1.8,1.21,7.91,7.91,0,0,0,6.64,0,7.28,7.28,0,0,0,1.8-1.21,1.21,1.21,0,0,0-1-2.06Z"/></g></mask><mask id="mask-35" x="1076" y="126" width="11" height="4" maskUnits="userSpaceOnUse"><g id="mask-28-2" data-name="mask-28"><path id="path-27" class="cls-1" d="M1077.4,126a1.21,1.21,0,0,0-1,2.06,7.28,7.28,0,0,0,1.8,1.21,7.91,7.91,0,0,0,6.64,0,7.28,7.28,0,0,0,1.8-1.21,1.21,1.21,0,0,0-1-2.06Z"/></g></mask></defs><title>hero-bg</title><path id="Oval-2" class="cls-2" d="M650,267c292.16,0,529-42.88,529-113.15S942.16,36,650,36,121,83.58,121,153.85,357.84,267,650,267Z"/><g id="Path" class="cls-3"><path class="cls-4" d="M3.6,419.71l-.92-2.85C38.35,405.34,65,399.5,82,399.5c19,0,32.21-14.67,39.29-43.61,6.21-25.34,6.21-55.43,6.21-69.89,0-23.56,27.46-45.94,83.95-68.39l1.1,2.78C158.11,242,130.5,264.11,130.5,286c0,14.58,0,44.91-6.29,70.61C116.75,387.06,102.55,402.5,82,402.5,65.35,402.5,39,408.29,3.6,419.71Z"/></g><path id="Shape-Copy-6" class="cls-5" d="M1047.53,122.14c-7.82-1-17.67-2-15.77,13.31,1.46,12.35,9.86,18.75,19.44,25A86.24,86.24,0,0,0,1076.82,172c2,.51,3.91.93,5.84,1.28l-3.35-19.53C1077.49,138.3,1055.35,123.17,1047.53,122.14Z"/><path id="Shape-Copy-5" class="cls-6" d="M854.93,60.32c-5.22,0-16.15,3-13,15.54,2.69,10.55,13.6,16.53,25,21.7a68.53,68.53,0,0,0,15,4.92,86.34,86.34,0,0,0,16.22,1.75L891.45,85.8C886.93,71.09,862.72,60,854.93,60.32Z"/><path id="Shape-Copy-3" class="cls-5" d="M238.59,165.42c-7.33.73-16.53,1.91-13.09,15.68,2,8.08,7.2,13,13.64,16.75a53.64,53.64,0,0,0,25.64,6.92l11.84.25-5.24-17.3C268,173.87,245.92,164.68,238.59,165.42Z"/><path id="Shape-Copy-4" class="cls-5" d="M389.35,80.32c-6.52,1.41-14.77,5.3-13.1,15.68,1.11,6.91,6.14,10.73,12.41,13.48a50.42,50.42,0,0,0,22.88,4.06,62.17,62.17,0,0,0,7.27-.81L416,97.42C414.39,85.08,395.88,78.9,389.35,80.32Z"/><g id="Path-2" class="cls-3"><path class="cls-4" d="M508,158.5H445.75a102,102,0,0,1-45.64-10.84L369,132a98.84,98.84,0,0,0-45.33-10.51l-52.26.55a98.17,98.17,0,0,0-35.06,6.85L197.84,144.1A206,206,0,0,1,122,158.5v-3a203,203,0,0,0,74.74-14.19l38.55-15.19a101.17,101.17,0,0,1,36.13-7.06l52.26-.55a101.76,101.76,0,0,1,46.71,10.83L401.46,145a99,99,0,0,0,44.29,10.52H508Z"/></g><g id="Path-3-8" data-name="Path-3" class="cls-7"><path class="cls-4" d="M366.44,131.43l-.88-2.86,76.82-23.78A28.52,28.52,0,0,0,456,59.44L443.19,44l2.31-1.9,12.76,15.49a31.49,31.49,0,0,1-15,50.11Z"/></g><g id="Path-4" class="cls-3"><path class="cls-4" d="M770.34,121.46l-.68-2.92,61.15-14.3H831l64.47-1.55L844.43,83a5.5,5.5,0,0,1,1.63-10.62L999.9,62.5l.2,3L846.25,75.34a2.5,2.5,0,0,0-.74,4.82l58,22.44-.5,2.9-71.85,1.73Z"/></g><g id="Path-5" class="cls-3"><path class="cls-4" d="M705.72,265.25l-1.64-2.5,1.62-1.07a19.45,19.45,0,0,0-3.37-34.29l-20.26-8.2a10.49,10.49,0,0,1-1.43-18.75l31.43-18.73,1.53,2.58L682.17,203a7.51,7.51,0,0,0-2.6,10.29,7.55,7.55,0,0,0,3.63,3.11l20.26,8.2a22.46,22.46,0,0,1,3.89,39.58Z"/></g><g id="Path-6-16" data-name="Path-6" class="cls-3"><path class="cls-4" d="M212.32,220.47l-.64-2.94,85.48-18.66a10.08,10.08,0,0,1,3.59-.13l81.83,11.93a98.29,98.29,0,0,0,24.95.45l60.23-6.6,109.92-24,.64,2.94-110.16,24-60.31,6.61a101.42,101.42,0,0,1-25.7-.46l-81.29-11.85a10.08,10.08,0,0,0-3.59.12Z"/></g><g id="Path-7" class="cls-3"><path class="cls-4" d="M1048.45,193.5h-44.84a102.07,102.07,0,0,1-45.4-10.72l-32.89-16.44A99.08,99.08,0,0,0,883.62,156L780,153.5l.08-3L883.69,153a102.11,102.11,0,0,1,43,10.69l32.89,16.44a99,99,0,0,0,44.05,10.4h44.84a36.35,36.35,0,0,0,33.8-22.73l3.68-9a39.4,39.4,0,0,1,32.82-24.42l50.11-4.8.28,3L1119,137.3a36.39,36.39,0,0,0-30.32,22.56l-3.68,9A39.35,39.35,0,0,1,1048.45,193.5Z"/></g><path id="Oval-2-2" data-name="Oval-2" class="cls-8" d="M650,188c82.29,0,149-19.92,149-44.5S732.29,99,650,99s-149,19.92-149,44.5S567.71,188,650,188Z"/><path id="Combined-Shape" class="cls-9" d="M529.47,170C511.56,162.63,501,153.54,501,143.72c0-20.1,44.27-37.11,105.16-42.72L635,111.09l3,58.24Z"/><g id="Path-11-3" data-name="Path-11" class="cls-3"><path class="cls-4" d="M898,529.78c-49.61,0-89.24-12.73-118.2-38C732.2,450.14,728.5,388,728.5,370c0-21.13-18.41-34.58-34.64-46.45-9.18-6.7-17.1-12.49-20.49-18.84-6.47-12.16,3.89-27.63,30.78-42l1.7,2.49c-25.14,13.47-35.37,27.72-29.83,38.12,3.06,5.75,10.73,11.36,19.61,17.84,16,11.68,35.87,26.21,35.87,48.87,0,17.72,3.62,78.71,50.27,119.48,28.38,24.81,67.36,37.29,116.22,37.3a342.47,342.47,0,0,0,45.81-3.27c33.37-4.5,68.15-9.55,101.77-14.43,96-13.94,186.78-27.12,254.44-29.8l0,3c-67.49,2.68-158.16,15.85-254,29.77-33.63,4.88-68.41,9.93-101.8,14.44A348.41,348.41,0,0,1,898,529.78Z"/></g><path id="Shape-Copy-2" class="cls-10" d="M1110.67,83.54a42.56,42.56,0,1,0-60.15,60.24l30,30.22,30-30A42.93,42.93,0,0,0,1110.67,83.54Z"/><path id="Shape-Copy-3-2" data-name="Shape-Copy-3" class="cls-11" d="M304.81,111.78a41,41,0,0,0-59.44,0,44.3,44.3,0,0,0,0,61.41L275,204l29.61-30.59A44.76,44.76,0,0,0,304.81,111.78Z"/><g id="Group-3"><g id="Mask-37" data-name="Mask"><circle id="path-3-9" data-name="path-3" class="cls-12" cx="275" cy="141" r="30"/></g><g class="cls-13"><path id="Shape" class="cls-14" d="M308,146.25a32.61,32.61,0,0,1-1.43,9.58,33.1,33.1,0,0,1-61.76,3.65A32.57,32.57,0,0,1,246.34,130a33.14,33.14,0,0,0,57.32,0A32.42,32.42,0,0,1,308,146.25Z"/></g><g class="cls-15"><g id="Group"><g id="Shape-2" data-name="Shape"><path class="cls-16" d="M263.35,173.91c.41-.66.84-1.3,1.3-1.93a28.18,28.18,0,0,1,6.43-6.4,2.87,2.87,0,0,0,.86-3.88,2.68,2.68,0,0,0-3.77-.9,34.43,34.43,0,0,0-11.07,13.11Z"/><path class="cls-17" d="M279.86,165.49a28.26,28.26,0,0,1,6.42,6.4c.48.66.93,1.33,1.35,2h6.22a33.75,33.75,0,0,0-11.09-13.2,2.69,2.69,0,0,0-3.77.9A2.87,2.87,0,0,0,279.86,165.49Z"/></g></g></g><g class="cls-18"><path id="Shape-3" data-name="Shape" class="cls-19" d="M287,173c-.62-7.83-2.28-10.23-3.7-11.8s-5.9-3.74-8.3-3.08c-2.4-.66-7,1.59-8.3,3.08s-3.08,4-3.7,11.8Z"/></g><g class="cls-20"><g id="Group-2" data-name="Group"><ellipse id="Oval" class="cls-21" cx="291.55" cy="143.05" rx="3.71" ry="4.85" transform="translate(-15.25 36.57) rotate(-7)"/><ellipse id="Oval-2-3" data-name="Oval" class="cls-21" cx="258.9" cy="143.05" rx="3.71" ry="4.85" transform="translate(-2.49 4.61) rotate(-1.01)"/><g id="Group-3-2" data-name="Group"><path id="Shape-4" data-name="Shape" class="cls-22" d="M263.14,173.45q.62-1,1.29-1.95A28.48,28.48,0,0,1,270.8,165l.13-.09c-1.64-.93-2.42-3-3.16-4.81a36.4,36.4,0,0,0-7.8,7.45,34.78,34.78,0,0,0-2.15,3.35c1,.76,2.06,1.65,3.1,2.52Z"/><path id="Shape-5" data-name="Shape" class="cls-22" d="M285.89,171.41c.48.66.92,1.34,1.34,2h5.56l.78-.51a33.21,33.21,0,0,0-3.22-5.45,28,28,0,0,0-7.93-7.37,8.78,8.78,0,0,1-3.34,4.46,2.65,2.65,0,0,0,.44.36A28.48,28.48,0,0,1,285.89,171.41Z"/></g><path id="Shape-6" data-name="Shape" class="cls-23" d="M287.47,173.45c-.56-8.41-2.51-10.53-3.94-12.17a9.09,9.09,0,0,0-2.25-1.68,7.82,7.82,0,0,1-12.56.27,8.19,8.19,0,0,0-1.79,1.41c-1.43,1.64-3.26,3.76-3.83,12.17Z"/><path id="Shape-7" data-name="Shape" class="cls-17" d="M275.5,125.12a21.9,21.9,0,0,0-11.39,3.58c-4.5,3.22-5,9.94-5.5,15.1-.56,5.46-.27,11,4.47,14.26,3.31,2.26,8.54,2.19,12.42,2.52V125.12Z"/><path id="Shape-8" data-name="Shape" class="cls-24" d="M274.23,125.12A23.09,23.09,0,0,1,286,128.7c4.77,3.22,5.26,9.94,5.82,15.1.6,5.46.3,11-4.73,14.26-3.5,2.26-8.76,2.19-12.87,2.52Z"/></g></g><g class="cls-25"><path id="Shape-9" data-name="Shape" class="cls-26" d="M275.5,120c-1.17-.07-17.12,1-16.48,18.94,0,0,1.74,4.06,1.75,4.06-.36-2.33,2.24-5.13,3.12-6,4.26-4.34,8.1.31,12.11,2.24,3.07,1.48,6.67,2.51,10,1.26a8.26,8.26,0,0,0,2.59-1.65,11,11,0,0,1,1.67,4.17l1.75-4.06C292.62,121,276.67,119.93,275.5,120Z"/></g><g class="cls-25"><circle id="Oval-3" data-name="Oval" class="cls-26" cx="266.5" cy="146.5" r="2.5"/></g><g class="cls-25"><circle id="Oval-4" data-name="Oval" class="cls-26" cx="283.5" cy="146.5" r="2.5"/></g></g><g id="Group-6"><path id="Shape-Copy" class="cls-27" d="M926.43,12.53a42.11,42.11,0,0,0-59.95,0,42.51,42.51,0,0,0,0,60.18l29.87,30.2,29.86-30A43,43,0,0,0,926.43,12.53Z"/><g id="Group-4" data-name="Group"><g id="Mask-38" data-name="Mask"><circle id="path-6-17" data-name="path-6" class="cls-28" cx="896" cy="42" r="30"/></g><g class="cls-29"><path id="Shape-10" data-name="Shape" class="cls-30" d="M929,52.25a32.61,32.61,0,0,1-1.43,9.58,33.1,33.1,0,0,1-61.76,3.65A32.57,32.57,0,0,1,867.34,36a33.14,33.14,0,0,0,57.32,0A32.42,32.42,0,0,1,929,52.25Z"/></g><g class="cls-31"><g id="Shape-11" data-name="Shape"><path class="cls-16" d="M881.28,79.78a30.56,30.56,0,0,1,2.85-4.59,29.26,29.26,0,0,1,6.73-6.5,2.87,2.87,0,0,0-3-4.86,33.9,33.9,0,0,0-8.11,7.71A35,35,0,0,0,875,79.78Z"/><path class="cls-17" d="M900.05,68.6a29,29,0,0,1,6.73,6.5,28.57,28.57,0,0,1,2.88,4.68h6.18a32.81,32.81,0,0,0-4.64-8.33,34.32,34.32,0,0,0-8.11-7.72,2.87,2.87,0,0,0-3,4.87Z"/></g></g><g class="cls-32"><path id="Shape-12" data-name="Shape" class="cls-19" d="M909,79c-.47-10.13-2.45-12.94-4.12-14.72-1.43-1.52-6.32-3.83-8.88-3.16-2.56-.67-7.45,1.64-8.88,3.16-1.67,1.78-3.65,4.58-4.12,14.72Z"/></g><g class="cls-33"><g id="Shape-13" data-name="Shape"><path class="cls-34" d="M881.28,79.75a30.06,30.06,0,0,1,2.85-4.59,31.13,31.13,0,0,1,6-6c-.1-.23-.2-.47-.31-.7l-.09-.18-.34-.61a36.7,36.7,0,0,1-2.18-3.47,36,36,0,0,0-7.46,7.27A35.07,35.07,0,0,0,875,79.75Z"/><path class="cls-34" d="M906.78,75.07a28.57,28.57,0,0,1,2.88,4.68h6.18a33.36,33.36,0,0,0-4.64-8.34,36.58,36.58,0,0,0-6.3-6.4c-.88,1.77-1.7,3.57-2.49,5.38A31.53,31.53,0,0,1,906.78,75.07Z"/></g></g><g class="cls-35"><path id="Shape-14" data-name="Shape" class="cls-23" d="M909,80c-.47-10.58-2.45-13.66-4.12-15.5-.17-.18-.09-.08-.34-.28-5.06,3.67-12.11,4.06-17.21-.22l-.21.2c-1.67,1.85-3.65,5.12-4.12,15.8Z"/></g><g class="cls-32"><path id="Shape-15" data-name="Shape" class="cls-34" d="M887,79c-.49-5-.88-10.11-1.15-15-1.5,1.82-3.6,4.93-3.85,15Z"/></g><g class="cls-35"><polygon id="Shape-16" data-name="Shape" class="cls-36" points="891 80 890.74 62 883 63.73 886.26 80 891 80"/></g><g class="cls-32"><path id="Shape-17" data-name="Shape" class="cls-34" d="M909,79c-.26-10.22-2.47-12.7-4.19-14.46-.17-.17-.69-.35-.94-.54-.15,5-.48,10-.87,15Z"/></g><g class="cls-35"><polygon id="Shape-18" data-name="Shape" class="cls-36" points="905.74 80 909 63.73 901.26 62 901 80 905.74 80"/></g><g class="cls-37"><ellipse id="Oval-5" data-name="Oval" class="cls-19" cx="912" cy="46" rx="4" ry="5" transform="translate(1.19 111.42) rotate(-7)"/></g><g class="cls-37"><ellipse id="Oval-6" data-name="Oval" class="cls-19" cx="878" cy="46" rx="4" ry="5" transform="translate(-0.68 15.55) rotate(-1.01)"/></g><g class="cls-37"><path id="Shape-19" data-name="Shape" class="cls-17" d="M896,28a24.12,24.12,0,0,0-12.13,3.63C879.09,34.9,877.78,41.7,878,47c.76,16.2,13.84,16.7,18,17V28Z"/></g><g class="cls-37"><path id="Shape-20" data-name="Shape" class="cls-38" d="M895,28a22.63,22.63,0,0,1,11.72,3.63c4.74,3.27,5.54,10.07,5.22,15.34-.43,7.12-3.39,17.16-16.94,17Z"/></g><g class="cls-37"><path id="Shape-21" data-name="Shape" class="cls-26" d="M912,37.22a16.22,16.22,0,0,0-.73-4.31A11.22,11.22,0,0,0,904,25.65c-2.82-.92-15.24-.84-18.06.09A11.18,11.18,0,0,0,878.74,33a15.77,15.77,0,0,0-.74,4.31,25.64,25.64,0,0,0,.74,4.69c.93-5.44,3.49-6.73,7.4-6.38,3.29.3,5.55,2,9,1.85v-.08c3.28,0,5.49-1.68,8.67-1.85,5.23-.29,7.76,6.18,7.76,6.18A15.88,15.88,0,0,0,912,37.22Z"/></g><g class="cls-37"><path id="Shape-22" data-name="Shape" class="cls-26" d="M879,32.52c4.15-8.35,12-9.23,19.76-12.63,2-.86,2.21-1.5,4.06.07A29.68,29.68,0,0,1,912,34"/></g></g></g><g id="Group-Copy"><g id="Mask-39" data-name="Mask"><circle id="path-8-3" data-name="path-8" class="cls-39" cx="1080" cy="113" r="30"/></g><g class="cls-40"><path id="Shape-23" data-name="Shape" class="cls-41" d="M1109,115.25a32.61,32.61,0,0,1-1.43,9.58,33.1,33.1,0,0,1-61.76,3.65A32.57,32.57,0,0,1,1047.34,99a33.14,33.14,0,0,0,57.32,0A32.42,32.42,0,0,1,1109,115.25Z"/></g><g class="cls-42"><g id="Group-5" data-name="Group"><path id="Shape-24" data-name="Shape" class="cls-26" d="M1064.09,141.66l33.18-.34s14-47.19-17.61-47.19C1048.78,94.13,1064.09,141.66,1064.09,141.66Z"/><g id="Group-6-2" data-name="Group"><path id="Shape-25" data-name="Shape" class="cls-16" d="M1068.53,144.52a23.09,23.09,0,0,1,1.91-3,22.42,22.42,0,0,1,5.23-5,2.23,2.23,0,0,0-2.37-3.77,27.14,27.14,0,0,0-9.67,11.78Z"/><path id="Shape-26" data-name="Shape" class="cls-17" d="M1085.87,136.51a22.5,22.5,0,0,1,5.22,5,22,22,0,0,1,1.9,3h4.88a26.17,26.17,0,0,0-3.35-5.81,26.59,26.59,0,0,0-6.29-6,2.22,2.22,0,0,0-2.36,3.77Z"/></g><path id="Shape-27" data-name="Shape" class="cls-19" d="M1092,144.52c-.56-7.47-2.14-9.72-3.49-11.2s-5.55-3.44-7.81-2.84c-2.25-.6-6.54,1.47-7.8,2.84s-2.39,3.73-2.66,11.2Z"/><path id="Shape-28" data-name="Shape" class="cls-43" d="M1091.89,144.52a36.2,36.2,0,0,0-.4-4.05s-1.71-2.05-10.9-1.88c-7.91.15-10.13,1.88-10.13,1.88-.12,1.14-.21,2.48-.26,4.05Z"/><g id="Group-7" data-name="Group"><path id="Shape-29" data-name="Shape" class="cls-44" d="M1068.83,144.52l1.36-2.12-.25,2.12h4.7V132.13s-6,1.36-10.12,9.61l3.6,2.78Z"/><polygon id="Shape-30" data-name="Shape" class="cls-45" points="1069.42 144.52 1069.53 144.37 1064.16 140.48 1062.56 142.68 1065.1 144.52 1069.42 144.52"/><polygon id="Shape-31" data-name="Shape" class="cls-45" points="1075.84 144.52 1075.84 131.03 1073.6 131.79 1073.6 144.52 1075.84 144.52"/></g><g id="Group-8" data-name="Group"><path id="Shape-32" data-name="Shape" class="cls-44" d="M1091.94,144.52l-.25-2.12,1.36,2.12h.71l3.61-2.78c-4.17-8.25-10.13-9.61-10.13-9.61v12.39Z"/><polygon id="Shape-33" data-name="Shape" class="cls-45" points="1096.78 144.52 1099.32 142.68 1097.72 140.48 1092.35 144.37 1092.46 144.52 1096.78 144.52"/><polygon id="Shape-34" data-name="Shape" class="cls-45" points="1088.28 144.52 1088.28 131.79 1086.04 131.03 1086.04 144.52 1088.28 144.52"/></g><g id="Group-9" data-name="Group"><path id="Shape-35" data-name="Shape" class="cls-17" d="M1080.92,101a21.36,21.36,0,0,0-10.72,3.2c-4.23,2.89-5.78,8.91-5.16,13.52,1.62,12.12,13.25,14.8,15.88,15Z"/><path id="Shape-36" data-name="Shape" class="cls-46" d="M1079.73,101a22.65,22.65,0,0,1,11.11,3.2c4.48,2.89,5.24,8.88,4.94,13.52-.41,6.28-7.64,14.78-16,15Z"/></g><path id="Shape-37" data-name="Shape" class="cls-47" d="M1073,107.9s10.21,9.44,23.22,7.65c0,0,1.28-17.34-16.07-17.34s-14.94,14.47-14.94,14.47S1068.43,112,1073,107.9Z"/><polygon id="Shape-38" data-name="Shape" class="cls-43" points="1073.47 106.22 1070.32 99.08 1067.07 103.6 1066.97 103.45 1061.38 102.97 1064.74 110.01 1067.96 105.41 1073.47 106.22"/></g></g></g><g id="Group-5-2" data-name="Group-5"><path id="Shape-39" data-name="Shape" class="cls-48" d="M450.67,21.54a42.56,42.56,0,0,0-60.15,60.24l30,30.22,30-30A42.93,42.93,0,0,0,450.67,21.54Z"/><g id="Group-2-2" data-name="Group-2"><g id="Mask-40" data-name="Mask"><circle id="path-11-4" data-name="path-11" class="cls-49" cx="420" cy="51" r="30"/></g><g class="cls-50"><path id="Shape-40" data-name="Shape" class="cls-51" d="M454,53.25a32.61,32.61,0,0,1-1.43,9.58,33.1,33.1,0,0,1-61.76,3.65A32.57,32.57,0,0,1,392.34,37a33.14,33.14,0,0,0,57.32,0A32.42,32.42,0,0,1,454,53.25Z"/></g><g class="cls-52"><g id="Group-4-2" data-name="Group-4"><path id="Shape-41" data-name="Shape" class="cls-53" d="M416.29,49.9c.12.41.25.81.37,1.21a6.1,6.1,0,0,1-.34,5.18l0,0Z"/><path id="Shape-42" data-name="Shape" class="cls-53" d="M441.63,65c-1.1-8.91-2.81-19.07-8.87-26.57-5.76-7.14-21.11-7.14-27.34-.27-6.49,7.15-6.75,16.82-7.68,25.76-.54,5.15,3.69,8.38,5.79,6.54-4.29,3.37-.65,10.09,2.88,10.26a18.8,18.8,0,0,1,2.89,0c1.61.77,3.72.68,5.43,1.26a28.89,28.89,0,0,0,4.59,1.4v0h.17v0a28.69,28.69,0,0,0,4.6-1.4c1.71-.58,3.82-.49,5.43-1.26a18.8,18.8,0,0,1,2.89,0c3.53-.17,7.16-6.89,2.88-10.26C437.39,72.31,442.36,71,441.63,65Z"/><ellipse id="Oval-7" data-name="Oval" class="cls-54" cx="434.22" cy="59.41" rx="3.75" ry="4.61" transform="translate(-4 53.33) rotate(-7)"/><ellipse id="Oval-8" data-name="Oval" class="cls-54" cx="403.97" cy="59.42" rx="3.75" ry="4.61" transform="translate(-2.5 20.68) rotate(-2.92)"/><g id="Group-10" data-name="Group"><path id="Shape-43" data-name="Shape" class="cls-16" d="M416.16,74.28a2.4,2.4,0,0,0-3.23-1,28.89,28.89,0,0,0-12.07,13.34h6.61A10.35,10.35,0,0,0,409.33,85a94.84,94.84,0,0,0,5.83-7.54A2.36,2.36,0,0,0,416.16,74.28Z"/><path id="Shape-44" data-name="Shape" class="cls-17" d="M432.06,87h6.78a27.71,27.71,0,0,0-5.27-8,28.6,28.6,0,0,0-7.37-5.66,2.4,2.4,0,0,0-3.2,1.07,2.35,2.35,0,0,0,1.08,3.16,59.9,59.9,0,0,0,5.83,7.85A8.11,8.11,0,0,0,432.06,87Z"/></g><path id="Shape-45" data-name="Shape" class="cls-55" d="M432,89.85c-.34-10.64-2.29-13.46-3.93-15.23-1.36-1.46-6-3.67-8.39-3-2.41-.65-7,1.56-8.38,3-1.64,1.77-2.85,4.59-2.93,15.23Z"/><path id="Shape-46" data-name="Shape" class="cls-56" d="M432,89.85c-.34-10.64-2.29-13.46-3.93-15.23a6.82,6.82,0,0,0-1.26-1,8.21,8.21,0,0,1-13.69-.34,7.72,7.72,0,0,0-1.82,1.34c-1.64,1.77-2.85,4.59-2.93,15.23Z"/><path id="Shape-47" data-name="Shape" class="cls-17" d="M419.94,40.22a23.17,23.17,0,0,0-11.52,3.4c-4.54,3.07-6.21,9.47-5.55,14.37,1.75,12.9,14.25,15.74,17.07,16Z"/><path id="Shape-48" data-name="Shape" class="cls-57" d="M419.66,40.22a22.17,22.17,0,0,1,11.25,3.4c4.54,3.07,5.3,9.44,5,14.37-.42,6.68-7.73,15.72-16.25,16V40.22Z"/><ellipse id="Oval-9" data-name="Oval" class="cls-26" cx="412.21" cy="57.01" rx="2.2" ry="2.17"/><ellipse id="Oval-10" data-name="Oval" class="cls-26" cx="428.2" cy="57.01" rx="2.2" ry="2.17"/><path id="Shape-Copy-7" class="cls-54" d="M420.42,63.92a1.75,1.75,0,0,1-1.9-1.54V55.79a1.94,1.94,0,0,1,3.8,0v6.59A1.75,1.75,0,0,1,420.42,63.92Z"/><g id="Shape-_-Shape-Mask" data-name="Shape-+-Shape-Mask"><g id="Mask-41" data-name="Mask"><path id="path-13-3" data-name="path-13" class="cls-26" d="M417,64.88c-1.19,0-1.82,1.24-1,2A7.16,7.16,0,0,0,417.72,68a7.77,7.77,0,0,0,6.49,0A7,7,0,0,0,426,66.87c.82-.75.18-2-1-2Z"/></g><g class="cls-58"><path id="Shape-49" data-name="Shape" class="cls-59" d="M423.41,68a6.37,6.37,0,0,1-2.93.71,6.44,6.44,0,0,1-2.94-.71,4.12,4.12,0,0,1,5.87,0Z"/></g><g class="cls-58"><path id="Shape-50" data-name="Shape" class="cls-60" d="M423.41,68a6.37,6.37,0,0,1-2.93.71V66.81A4.08,4.08,0,0,1,423.41,68Z"/></g></g><path id="Shape-51" data-name="Shape" class="cls-61" d="M419.51,35.81c-6-.18-11.35,2-14.37,7.31a23.69,23.69,0,0,0-3.07,12.11c.16,2.89,3,4.87,4.93,1.86,1.07-1.62.8-3.69.94-5.53,1.43,2.41,5.73-.56,5.43-3,3.24,2.66,9,1.7,12.49.12l.48-.23c9.16,2.38,9.57,9.57,9.57,9.57S439.62,36.45,419.51,35.81Z"/><g id="Group-11" data-name="Group"><polygon id="Shape-52" data-name="Shape" class="cls-62" points="425.3 85.39 425.61 77.1 420.35 79.91 420.32 79.72 415.15 76.65 415.08 84.94 420.36 82.05 425.3 85.39"/><rect id="Rectangle-path" class="cls-63" x="419.07" y="78.93" width="2.56" height="3.98"/></g></g></g></g></g><polygon id="Fill-1" class="cls-64" points="637.02 117 636.92 170 743.82 132 743.92 73 637.02 117"/><polygon id="Fill-2" class="cls-65" points="704 24 590 56 546 89.2 686 50 704 24"/><polygon id="Fill-3" class="cls-65" points="704.9 24 589.6 56 637 118 754.6 80 704.9 24"/><polygon id="Fill-4" class="cls-66" points="554.66 81.07 554.56 142.07 637.46 170.07 637.56 119.07 590.26 57.07 554.66 81.07"/><polygon id="Fill-5" class="cls-67" points="554.58 131.72 637.48 160.17 637.48 159.11 554.58 130.67 554.58 131.72"/><polygon id="Fill-6" class="cls-67" points="637.5 149.12 554.61 120.68 554.61 121.74 637.5 150.18 637.5 149.12"/><polygon id="Fill-7" class="cls-67" points="554.61 111.74 637.52 140.18 637.52 139.12 554.61 110.68 554.61 111.74"/><polygon id="Fill-8" class="cls-67" points="554.63 101.74 637.54 130.19 637.54 129.13 554.63 100.68 554.63 101.74"/><polygon id="Fill-9" class="cls-67" points="554.64 91.75 637.56 120.19 637.56 119.14 554.64 90.69 554.64 91.75"/><polygon id="Fill-10" class="cls-67" points="626.53 106.87 553.84 81.47 554.16 80.53 626.86 105.93 626.53 106.87"/><polygon id="Fill-11" class="cls-67" points="615.71 93.09 563.67 74.91 564 73.96 616.04 92.15 615.71 93.09"/><path id="Fill-12" class="cls-68" d="M595.31,88.41c-.29,2.7-2.45,5.1-6.25,4.21A7.3,7.3,0,0,1,583.78,85c.3-2.7,2-5,5.19-4.13,3.79.89,6.77,3.95,6.34,7.51"/><path id="Fill-14" class="cls-69" d="M595.31,88.41c-.29,2.7-2.45,5.1-6.25,4.21A7.3,7.3,0,0,1,583.78,85c1.13,2.43,2.87,5.34,5.19,5.87,3.79.89,4.84-.77,6.34-2.49"/><polygon id="Fill-16" class="cls-67" points="604.74 79.26 573.44 68.32 573.77 67.38 605.07 78.31 604.74 79.26"/><polygon id="Fill-18" class="cls-70" points="546 85.9 546 89.2 589.6 59.5 637.2 121 637 118 589.6 56 546 85.9"/><polygon id="Fill-20" class="cls-71" points="671 114 671 158.3 648.1 166 648 121.7 671 114"/><polygon id="Fill-22" class="cls-72" points="671 127 671 158.3 648.1 166 648 135.5 671 127"/><polygon id="Fill-24" class="cls-73" points="671 159 667 155.6 667 115.4 671 114 671 159"/><polygon id="Fill-26" class="cls-68" points="735 92 735 109.5 678.1 131 678 112.5 735 92"/><polygon id="Fill-28" class="cls-74" points="735 112 732 110.6 732 93.08 735 92 735 112"/><polygon id="Fill-30" class="cls-69" points="732 110.6 678.1 130.26 678.1 133 735 112 732 110.6"/><polygon id="Fill-32" class="cls-68" points="611 114 611 132.6 624.9 138 625 119.4 611 114"/><polygon id="Fill-34" class="cls-74" points="611 133 614 131.6 614 115.4 611 114 611 133"/><polygon id="Fill-36" class="cls-69" points="614 131.6 624.91 135.17 624.9 138 611 133 614 131.6"/><polygon id="Fill-38" class="cls-68" points="561 96 561 114.4 602.9 128 603 109.6 561 96"/><polygon id="Fill-40" class="cls-74" points="561 114.55 564 113.15 564 99.95 561 98.55 561 114.55"/><polygon id="Fill-42" class="cls-69" points="564 113.15 602.91 126.27 602.9 129 561 114.55 564 113.15"/><polygon id="Fill-44" class="cls-64" points="604.9 106.8 597.2 110.9 557.1 98.3 564.8 94.2 604.9 106.8"/><polygon id="Fill-46" class="cls-75" points="604.9 106.8 604.9 108.8 597.2 112.8 597.2 111 604.9 106.8"/><polygon id="Fill-48" class="cls-75" points="597.2 110.9 597.2 112.8 557.1 100.31 557.1 98.3 597.2 110.9"/><g class="cls-76"><path id="Fill-50" class="cls-77" d="M654.18,176v2.3a1.51,1.51,0,0,0,1.6.5c1.1-.3,4.8-2.1,4.5-2.7-.7-1.4-2.3-.5-4.4-.3-1.1.1-1.7.2-1.7.2"/></g><path id="Fill-53" class="cls-77" d="M648.38,172.94v2.4a1.51,1.51,0,0,0,1.6.5c1.1-.3,4.9-2.2,4.5-2.7-.9-1.4-2.2-.5-4.3-.4-1.1.1-1.8.2-1.8.2"/><path id="Fill-55" class="cls-78" d="M647.71,150l.1,2a5.58,5.58,0,0,0,.8.5,4.38,4.38,0,0,0,1.9-.7c0-.2-.4-1.41-.4-1.6s-.1-1.1-.1-1.1Z"/><path id="Fill-57" class="cls-78" d="M650.71,132.72c-.7,0-3-.2-3.3,4a53,53,0,0,0-.2,7c.1,3.39.5,6.3.5,6.3s.6.8,2.3-.5c0,0,0-6.61.31-9.2.29-3.8,1.69-7.41.39-7.6"/><path id="Fill-59" class="cls-79" d="M648,136.5a59.31,59.31,0,0,0-.1,12.6c0,.5.1,1,.1,1.4,0,2.5,1.3,1.8,2,1.6Z"/><path id="Fill-61" class="cls-80" d="M650.6,132.8c-.7-.1-3.2-.3-3.6,4.3v.3c.2.9.7,1.3,2,1.6.5-3.3,2.9-6.1,1.6-6.2"/><path id="Fill-63" class="cls-78" d="M648.3,148.5l.1,24.5s0,.8,1.5.8,1.4-.9,1.4-.9l1.2-18.2.9.5.8,21a1.77,1.77,0,0,0,1.5.6,1.25,1.25,0,0,0,1.3-.9l1-25.9Z"/><path id="Fill-65" class="cls-81" d="M648.38,171.79V173s0,.8,1.5.8,1.4-.9,1.4-.9l.1-1a3.48,3.48,0,0,1-3-.1"/><path id="Fill-67" class="cls-81" d="M654.08,174.89v1.4a1.77,1.77,0,0,0,1.5.6,1.25,1.25,0,0,0,1.3-.9v-1.1a3.85,3.85,0,0,1-2.8,0"/><path id="Fill-69" class="cls-82" d="M657.7,162.2l.5-12.1-10.1-1.6v11.9a7.27,7.27,0,0,0,3.9,1.3l.4-6.6.9.5.2,6.1a7.65,7.65,0,0,0,4.2.5"/><path id="Fill-71" class="cls-80" d="M648,149.3s-.2-3.6-.1-7c.1-2.9.1-3.9.1-5.4,0-3.3,1.5-4.1,2.6-4.1a25.2,25.2,0,0,1,8.1,4.2l-.6,13.5c-1.3,1.6-7.7,1.1-10.1-1.2"/><path id="Fill-73" class="cls-78" d="M657.08,127.72s.2,3.5-.7,4.2-5.2.2-6.5-1.9-.6-6.2,2.3-6.7c3.3-.5,5.1,1.2,4.9,4.4"/><path id="Fill-75" class="cls-78" d="M652.28,131l-.8,3.7a3.34,3.34,0,0,0,3.6.4,26.28,26.28,0,0,1,.4-3.3c.3-.5-3.2-.8-3.2-.8"/><path id="Fill-77" class="cls-81" d="M651.4,134.6c0-.2.1-.9.3-.9,0,0,0,.9,3.5.5l.4.7a4.26,4.26,0,0,1-2.3.7c-.8-.2-1.8-.6-1.9-1"/><path id="Fill-79" class="cls-78" d="M657.18,154.74s.1,1.7.1,2-.2.4,0,.8c0,.1.6.4.8.5s1.5-.8,1.7-.9,0-1.2,0-1.5c0-.1,0-1.4-.2-1.4a14.43,14.43,0,0,0-2.4.5"/><path id="Fill-81" class="cls-78" d="M659,137.65c-.4-.61-1.9-1.9-2.6.39s.8,17,.8,17,1.2,1.21,2.4-.59c0,0-.3-5.41-.3-8.91s.4-6.89-.3-7.89"/><path id="Fill-83" class="cls-80" d="M659.5,142.6c.1-2.4.1-4.5-.4-5.3s-2.2-1.7-3,1a15.86,15.86,0,0,0-.2,4.2,5.49,5.49,0,0,0,3.6.1"/><path id="Fill-85" class="cls-83" d="M649.6,124.9c-.7,1.1-1.1,2.6,0,5a8.54,8.54,0,0,0,1.7,2.3,1.75,1.75,0,0,0,1.8.2,10,10,0,0,0,1.1-2.1s-1-1.6,0-2.2,1.4,1.8,1.4,1.8l.2-2.7s0-.9,1.3-1c.3,0,0-1.6-1.2-2.4a4.57,4.57,0,0,0-6.3,1.1"/><g class="cls-84"><path id="Fill-87" class="cls-65" d="M754.65,80a7.52,7.52,0,0,1-4.5,5c-2,.66-3.29-.57-2.85-2.66Z"/></g><path id="Fill-90" class="cls-85" d="M747.31,82.36a7.51,7.51,0,0,1-4.51,5c-2,.65-3.28-.58-2.84-2.67Z"/><path id="Fill-92" class="cls-65" d="M740,84.71a7.52,7.52,0,0,1-4.5,5c-2,.66-3.29-.57-2.85-2.66Z"/><path id="Fill-94" class="cls-85" d="M732.69,87a7.51,7.51,0,0,1-4.48,5c-2,.67-3.29-.55-2.86-2.64Z"/><path id="Fill-96" class="cls-65" d="M725.27,89.2a7.51,7.51,0,0,1-4.4,5.1c-2,.7-3.3-.5-2.9-2.6Z"/><path id="Fill-98" class="cls-85" d="M718,91.7a7.51,7.51,0,0,1-4.4,5.1c-2,.7-3.3-.5-2.9-2.6Z"/><path id="Fill-100" class="cls-65" d="M710.6,94.1a7.52,7.52,0,0,1-4.5,5c-2,.7-3.3-.5-2.8-2.6Z"/><path id="Fill-102" class="cls-85" d="M703.3,96.5a7.74,7.74,0,0,1-4.5,5c-2,.7-3.3-.5-2.8-2.6Z"/><path id="Fill-104" class="cls-65" d="M696,98.8a7.52,7.52,0,0,1-4.5,5c-2,.7-3.3-.5-2.8-2.6Z"/><path id="Fill-106" class="cls-85" d="M688.6,101.2a7.52,7.52,0,0,1-4.5,5c-2,.7-3.3-.5-2.8-2.6Z"/><path id="Fill-108" class="cls-65" d="M681.3,103.6a7.52,7.52,0,0,1-4.5,5c-2,.7-3.3-.5-2.8-2.6Z"/><path id="Fill-110" class="cls-85" d="M674,106a7.5,7.5,0,0,1-4.6,4.9c-2,.7-3.3-.5-2.8-2.6Z"/><path id="Fill-112" class="cls-65" d="M666.6,108.3a7.52,7.52,0,0,1-4.5,5c-2,.6-3.3-.5-2.8-2.6Z"/><path id="Fill-114" class="cls-85" d="M659.3,110.7a7.52,7.52,0,0,1-4.5,5c-2,.6-3.3-.5-2.8-2.7Z"/><path id="Fill-116" class="cls-65" d="M651.9,113.1a7.52,7.52,0,0,1-4.5,5c-2,.7-3.3-.5-2.8-2.6Z"/><path id="Fill-118" class="cls-85" d="M644.6,115.4a7.52,7.52,0,0,1-4.5,5,6.28,6.28,0,0,1-3.08.6c0-1.33,0-2.63,0-3Z"/><polyline id="Fill-120" class="cls-86" points="715.4 54.6 713.6 81.6 660 101.1"/><polyline id="Fill-122" class="cls-87" points="660 101.1 661.8 74.1 715.4 54.6"/><polygon id="Fill-124" class="cls-87" points="664.2 76 712.1 58.7 710.2 79.7 663.2 97 664.2 76"/><polyline id="Fill-126" class="cls-88" points="663.2 97 664.2 76 712.1 58.7"/><polygon id="Fill-128" class="cls-89" points="659.4 72.1 713 53.6 715.4 54.6 661.8 74 659.4 72.1"/><polygon id="Fill-130" class="cls-90" points="659.4 72.3 661.8 74.1 660 101.1 657.6 99.3 659.4 72.3"/><g id="Path-9" class="cls-3"><path class="cls-91" d="M-.07,123.94c20.26,3.81,37,9.95,49.77,18.32C66.21,153,91.19,157.83,122,158.5l.06-3c-30.21-.66-54.66-5.29-70.69-15.76C38.09,131.1,20.87,124.78,0,120.9Z"/></g><g id="Path-12" class="cls-7"><path class="cls-92" d="M1295.92,139.85A306.65,306.65,0,0,1,1256.6,132c-17.07-4.69-46.82-4.68-88.43,0l-.34-3c42-4.77,72.13-4.76,89.57,0a303.7,303.7,0,0,0,38.91,7.74Z"/></g><g id="Path-14" class="cls-3"><path class="cls-93" d="M1278.67,65.46c-77.52-17.22-124.18-26-138.67-26-9.37,0-17,3-25.92,6.44-11.53,4.48-24.59,9.56-45.08,9.56a226.24,226.24,0,0,0-67.55,9.93l-.9-2.86A229.31,229.31,0,0,1,1069,52.5c19.92,0,32.71-5,44-9.36,8.78-3.41,17.08-6.64,27-6.64,14.71,0,61.58,8.76,139.33,26Z"/></g><g id="Path-15-2" data-name="Path-15" class="cls-3"><path class="cls-94" d="M0,225.61v-3.2l14.41-5.1a98,98,0,0,0,55.44-49.19l7.81-15.79,2.68,1.34-7.8,15.78a101,101,0,0,1-57.13,50.69Z"/></g><path id="Shape-Copy-7-2" data-name="Shape-Copy-7" class="cls-21" d="M275,153a1.83,1.83,0,0,1-2-1.59v-6.82a2.05,2.05,0,0,1,4,0v6.82A1.83,1.83,0,0,1,275,153Z"/><g id="Shape-_-Shape-Mask-2" data-name="Shape-+-Shape-Mask"><g id="Mask-42" data-name="Mask"><path id="path-23-3" data-name="path-23" class="cls-26" d="M271.4,154a1.21,1.21,0,0,0-1,2.06,7.28,7.28,0,0,0,1.8,1.21,7.91,7.91,0,0,0,6.64,0,7.28,7.28,0,0,0,1.8-1.21,1.21,1.21,0,0,0-1-2.06Z"/></g><g class="cls-95"><path id="Shape-53" data-name="Shape" class="cls-59" d="M278,157.27a6.53,6.53,0,0,1-6,0,4.18,4.18,0,0,1,6,0Z"/></g><g class="cls-95"><path id="Shape-54" data-name="Shape" class="cls-60" d="M278,157.27a6.43,6.43,0,0,1-3,.73v-2A4.14,4.14,0,0,1,278,157.27Z"/></g></g><circle id="Oval-11" data-name="Oval" class="cls-26" cx="887.5" cy="47.5" r="2.5"/><circle id="Oval-12" data-name="Oval" class="cls-26" cx="903.5" cy="47.5" r="2.5"/><path id="Shape-Copy-7-3" data-name="Shape-Copy-7" class="cls-54" d="M896,54a1.83,1.83,0,0,1-2-1.59V45.59a2.05,2.05,0,0,1,4,0v6.82A1.83,1.83,0,0,1,896,54Z"/><g id="Shape-_-Shape-Mask-3" data-name="Shape-+-Shape-Mask"><g id="Mask-43" data-name="Mask"><path id="path-25-3" data-name="path-25" class="cls-26" d="M892.4,55a1.21,1.21,0,0,0-1,2.06,7.28,7.28,0,0,0,1.8,1.21,7.91,7.91,0,0,0,6.64,0,7.28,7.28,0,0,0,1.8-1.21,1.21,1.21,0,0,0-1-2.06Z"/></g><g class="cls-96"><path id="Shape-55" data-name="Shape" class="cls-59" d="M899,58.27a6.53,6.53,0,0,1-6,0,4.18,4.18,0,0,1,6,0Z"/></g><g class="cls-96"><path id="Shape-56" data-name="Shape" class="cls-60" d="M899,58.27a6.43,6.43,0,0,1-3,.73V57A4.14,4.14,0,0,1,899,58.27Z"/></g></g><circle id="Oval-13" data-name="Oval" class="cls-26" cx="1072.5" cy="118.5" r="2.5"/><circle id="Oval-14" data-name="Oval" class="cls-26" cx="1088.5" cy="118.5" r="2.5"/><path id="Shape-Copy-7-4" data-name="Shape-Copy-7" class="cls-97" d="M1081,125a1.83,1.83,0,0,1-2-1.59v-6.82a2.05,2.05,0,0,1,4,0v6.82A1.83,1.83,0,0,1,1081,125Z"/><g id="Shape-_-Shape-Mask-4" data-name="Shape-+-Shape-Mask"><g id="Mask-44" data-name="Mask"><path id="path-27-3" data-name="path-27" class="cls-26" d="M1077.4,126a1.21,1.21,0,0,0-1,2.06,7.28,7.28,0,0,0,1.8,1.21,7.91,7.91,0,0,0,6.64,0,7.28,7.28,0,0,0,1.8-1.21,1.21,1.21,0,0,0-1-2.06Z"/></g><g class="cls-98"><path id="Shape-57" data-name="Shape" class="cls-59" d="M1084,129.27a6.53,6.53,0,0,1-6,0,4.18,4.18,0,0,1,6,0Z"/></g><g class="cls-98"><path id="Shape-58" data-name="Shape" class="cls-60" d="M1084,129.27a6.43,6.43,0,0,1-3,.73v-2A4.14,4.14,0,0,1,1084,129.27Z"/></g></g></svg>