<?xml version="1.0" encoding="utf-8"?>
<svg version="1.1" id="Layer_1" xmlns="http://www.w3.org/2000/svg" xmlns:xlink="http://www.w3.org/1999/xlink" x="0px" y="0px"
	 viewBox="0 0 150 39" style="enable-background:new 0 0 150 39;" xml:space="preserve">
<style type="text/css">
	.st0{fill:#1D1C1C;}
</style>
<path id="Vidyaposhini" class="st0" d="M51.3,15.9l2.3,6.9h0.1l2.4-7.4l-1-0.1v-1.4h3.9v1.4l-0.6,0.1c-0.1,0-0.3,0.1-0.3,0.1
	c-0.1,0.1-0.1,0.2-0.2,0.4l-3.2,9.4h-2.2L49,15.4l-1-0.1v-1.4h4.4v1.4l-0.6,0.1c-0.4,0-0.5,0.2-0.5,0.4
	C51.3,15.8,51.3,15.8,51.3,15.9z M62.7,16.6v7.1l1,0.1v1.4h-4v-1.3l0.6-0.1c0.3,0,0.5-0.2,0.5-0.5v-4.7c0-0.2,0-0.3-0.1-0.4
	c-0.1-0.1-0.2-0.1-0.3-0.1l-0.6,0v-1.4H62.7z M60.2,14.3c0-0.4,0.1-0.7,0.4-0.9c0.2-0.2,0.5-0.4,0.9-0.4s0.7,0.1,0.9,0.4
	c0.2,0.2,0.4,0.5,0.4,0.9c0,0.4-0.1,0.7-0.4,0.9c-0.2,0.2-0.6,0.3-0.9,0.3s-0.7-0.1-0.9-0.3C60.3,14.9,60.2,14.6,60.2,14.3z
	 M68.9,16.4c0.5,0,1,0.1,1.4,0.2v-1.7c0-0.2-0.1-0.4-0.4-0.4l-0.7-0.1v-1.3h3.2v10.3c0,0.3,0.2,0.4,0.4,0.4l0.6,0v1.4h-2.8v-1
	l-0.1,0c-0.5,0.8-1.3,1.2-2.3,1.2c-1.3,0-2.2-0.4-2.7-1.3c-0.5-0.8-0.7-1.7-0.7-2.9c0-1.5,0.4-2.7,1.1-3.5S67.6,16.4,68.9,16.4z
	 M70.3,22.5v-4.4c-0.4-0.2-0.8-0.3-1.3-0.3c-0.7,0-1.3,0.3-1.6,0.9s-0.5,1.4-0.5,2.3c0,1.9,0.6,2.9,1.8,2.9c0.5,0,0.9-0.1,1.2-0.4
	S70.3,22.9,70.3,22.5z M80.5,24.9v-1.3c-0.6,0.9-1.5,1.3-2.8,1.3c-1.8,0-2.6-1-2.6-2.9v-3.4c0-0.3-0.1-0.5-0.4-0.5l-0.5,0v-1.4h3
	v4.9c0,0.6,0.1,1.1,0.3,1.4c0.2,0.3,0.5,0.5,1.1,0.5s1-0.2,1.3-0.5c0.3-0.3,0.5-0.7,0.5-1.2v-3.1c0-0.2,0-0.3-0.1-0.4
	s-0.2-0.1-0.3-0.1l-0.5,0v-1.4h3v8.2c0,1.4-0.3,2.4-1,3c-0.7,0.6-1.7,1-3,1s-2.4-0.2-3.1-0.6v-2.4l1.6-0.1v0.8
	c0,0.3,0.1,0.5,0.4,0.6c0.3,0.1,0.7,0.2,1.2,0.2C79.8,27.4,80.5,26.5,80.5,24.9z M91.7,17v6.3c0,0.2,0,0.3,0.1,0.4
	c0.1,0.1,0.2,0.1,0.3,0.1l0.5,0v1.4h-2.7v-1l-0.1,0c-0.6,0.8-1.3,1.2-2.3,1.2c-1.2,0-2-0.4-2.6-1.1c-0.6-0.7-0.8-1.7-0.8-3
	c0-1.5,0.4-2.7,1.1-3.6c0.7-0.9,1.9-1.3,3.4-1.3C89.6,16.4,90.6,16.6,91.7,17z M89.7,22.5v-4.4c-0.3-0.1-0.8-0.2-1.3-0.2
	c-0.8,0-1.3,0.3-1.6,0.9c-0.3,0.6-0.5,1.4-0.5,2.4c0,1.8,0.6,2.8,1.8,2.8c0.5,0,0.9-0.2,1.2-0.5S89.7,22.9,89.7,22.5z M94.6,26.8
	v-8.2c0-0.2,0-0.3-0.1-0.4s-0.2-0.1-0.3-0.1L93.5,18v-1.4h2.9v1.1c0.2-0.3,0.5-0.7,1-0.9s1-0.4,1.7-0.4c2.1,0,3.1,1.4,3.1,4.3
	c0,1.5-0.3,2.7-1,3.5c-0.7,0.8-1.6,1.2-2.7,1.2c-0.7,0-1.3-0.2-1.8-0.5v2.3l1.4,0.1v1.3h-4.4v-1.3l0.6-0.1c0.2,0,0.3-0.1,0.4-0.1
	C94.6,27.1,94.6,27,94.6,26.8z M100,20.9c0-1.9-0.6-2.8-1.7-2.8c-0.5,0-0.9,0.1-1.2,0.4s-0.5,0.6-0.5,1v3.9c0.4,0.3,1,0.4,1.6,0.4
	c0.6,0,1.1-0.3,1.4-0.9S100,21.7,100,20.9z M107.2,23.9c1.2,0,1.9-1,1.9-3c0-1-0.1-1.8-0.4-2.3c-0.3-0.5-0.7-0.8-1.4-0.8
	s-1.1,0.2-1.4,0.7c-0.3,0.5-0.5,1.2-0.5,2c0,1.6,0.3,2.6,0.9,3C106.5,23.9,106.8,23.9,107.2,23.9z M103.3,20.9
	c0-0.8,0.1-1.6,0.4-2.2c0.2-0.6,0.6-1.1,1-1.4c0.8-0.6,1.7-0.9,2.7-0.9c0.7,0,1.3,0.1,1.7,0.3s0.8,0.5,1.1,0.8
	c0.3,0.3,0.5,0.7,0.7,1.3c0.2,0.5,0.3,1.2,0.3,1.9c0,1.6-0.4,2.7-1.1,3.6c-0.8,0.8-1.7,1.2-2.9,1.2c-1.2,0-2.1-0.4-2.8-1.1
	C103.7,23.5,103.3,22.4,103.3,20.9z M116.7,17.9c-0.3-0.1-0.6-0.2-1-0.2s-0.7,0.1-0.9,0.3c-0.2,0.2-0.3,0.4-0.3,0.6s0,0.5,0.1,0.6
	s0.2,0.3,0.4,0.4c0.3,0.1,0.6,0.3,1,0.4c0.4,0.1,0.7,0.2,0.9,0.3s0.4,0.2,0.7,0.3c0.3,0.1,0.5,0.3,0.7,0.5c0.4,0.4,0.6,1,0.6,1.6
	c0,0.9-0.3,1.5-0.9,2s-1.4,0.7-2.4,0.7c-1.4,0-2.4-0.2-3.1-0.5v-2.4l1.5-0.1v0.8c0,0.5,0.5,0.7,1.4,0.7c1,0,1.4-0.3,1.4-1
	c0-0.2-0.1-0.5-0.2-0.6c-0.2-0.2-0.3-0.3-0.5-0.3s-0.3-0.1-0.6-0.2s-0.4-0.1-0.6-0.2c-0.2-0.1-0.4-0.1-0.7-0.2s-0.5-0.2-0.8-0.4
	c-0.6-0.4-0.9-1-0.9-1.9s0.3-1.6,0.9-2s1.4-0.7,2.4-0.7c0.9,0,1.9,0.2,2.8,0.7v2l-1.5,0.1v-0.7C117.1,18.2,117,18,116.7,17.9z
	 M121,23.3V15c0-0.2,0-0.3-0.1-0.4c-0.1-0.1-0.2-0.1-0.3-0.1l-0.6,0v-1.4h3v4.6c0.6-0.8,1.4-1.3,2.5-1.3c0.9,0,1.5,0.2,2,0.7
	s0.7,1.2,0.7,2.2v4.4l1,0.1v1.4h-4v-1.3l0.6-0.1c0.2,0,0.3-0.1,0.4-0.1c0.1-0.1,0.1-0.2,0.1-0.4v-3.5c0-0.6-0.1-1-0.3-1.4
	c-0.2-0.3-0.5-0.5-1.1-0.5s-1,0.2-1.3,0.5c-0.3,0.3-0.5,0.7-0.5,1.2v4.1l1,0.1v1.4h-4v-1.3l0.6-0.1c0.2,0,0.3-0.1,0.4-0.1
	C121,23.6,121,23.5,121,23.3z M133.2,16.6v7.1l1,0.1v1.4h-4v-1.3l0.6-0.1c0.3,0,0.5-0.2,0.5-0.5v-4.7c0-0.2,0-0.3-0.1-0.4
	c-0.1-0.1-0.2-0.1-0.3-0.1l-0.6,0v-1.4H133.2z M130.7,14.3c0-0.4,0.1-0.7,0.4-0.9c0.2-0.2,0.5-0.4,0.9-0.4c0.4,0,0.7,0.1,0.9,0.4
	c0.2,0.2,0.4,0.5,0.4,0.9c0,0.4-0.1,0.7-0.4,0.9c-0.2,0.2-0.6,0.3-0.9,0.3c-0.4,0-0.7-0.1-0.9-0.3C130.9,14.9,130.7,14.6,130.7,14.3
	z M135.1,18v-1.4h2.9v1.1c0.3-0.4,0.7-0.8,1.2-1c0.5-0.2,1-0.4,1.6-0.4c0.9,0,1.5,0.2,2,0.7s0.7,1.2,0.7,2.2v4.4l1,0.1v1.4h-4v-1.3
	l0.6-0.1c0.2,0,0.3-0.1,0.4-0.1c0.1-0.1,0.1-0.2,0.1-0.4v-3.5c0-0.6-0.1-1.1-0.3-1.4c-0.2-0.3-0.6-0.5-1.1-0.5c-0.5,0-1,0.2-1.3,0.5
	c-0.3,0.3-0.5,0.7-0.5,1.2v4.1l1,0.1v1.4h-4v-1.3l0.6-0.1c0.2,0,0.3-0.1,0.4-0.1c0.1-0.1,0.1-0.2,0.1-0.4v-4.7
	c0-0.3-0.1-0.5-0.4-0.5L135.1,18z M148.5,16.6v7.1l1,0.1v1.4h-4v-1.3l0.6-0.1c0.3,0,0.5-0.2,0.5-0.5v-4.7c0-0.2,0-0.3-0.1-0.4
	c-0.1-0.1-0.2-0.1-0.3-0.1l-0.6,0v-1.4H148.5z M146,14.3c0-0.4,0.1-0.7,0.4-0.9c0.2-0.2,0.5-0.4,0.9-0.4s0.7,0.1,0.9,0.4
	c0.2,0.2,0.4,0.5,0.4,0.9c0,0.4-0.1,0.7-0.4,0.9c-0.2,0.2-0.6,0.3-0.9,0.3s-0.7-0.1-0.9-0.3C146.1,14.9,146,14.6,146,14.3z"/>
<image style="overflow:visible;enable-background:new;" width="114" height="111" id="Bitmap" xlink:href="341432060CDF7F1E.png"  transform="matrix(0.344 0 0 0.344 0.3931 0)">
</image>
</svg>
