<?xml version="1.0" encoding="utf-8"?>
<svg version="1.1" id="Layer_1" xmlns="http://www.w3.org/2000/svg" xmlns:xlink="http://www.w3.org/1999/xlink" x="0px" y="0px"
	 viewBox="0 0 100 100" style="enable-background:new 0 0 100 100;" xml:space="preserve" height="100" width="100">
<style type="text/css">
	.st0{fill:#9E69E2;}
	.st1{fill:#8E4FD2;}
	.st2{fill:#7038BA;}
	.st3{fill:#DD1265;}
	.st4{fill:#BA0D5C;}
	.st5{fill:#FF3445;}
	.st6{fill:#FF9F00;}
	.st7{fill:#ED771B;}
	.st8{fill:#FFD112;}
	.st9{fill:#FFE955;}
	.st10{fill:#FFFFFF;}
</style>
<path class="st0" d="M100,50c0,27.6-22.4,50-50,50S0,77.6,0,50S22.4,0,50,0S100,22.4,100,50z"/>
<path class="st1" d="M100,50c0,5.1-0.8,10-2.2,14.6C91.6,85.1,72.5,100,50,100c-20.4,0-38-12.2-45.7-29.8
	C1.5,64,0,57.2,0,50c0-9,2.4-17.5,6.6-24.8C15.2,40.2,31.4,50.4,50,50.4s34.8-10.1,43.4-25.2C97.6,32.5,100,41,100,50z"/>
<path class="st2" d="M6,73.8c1.4,2.6,3,5,4.8,7.3C20,92.6,34.1,100,50,100s30-7.4,39.2-18.9c1.8-2.3,3.4-4.7,4.8-7.3
	H6z"/>
<path class="st3" d="M97.2,33.5L52.8,56.1c0,0,0,0,0,0c0,0,0,0,0,0l0,0l-2.7,1.4l-0.2,0.1h0l0,0l-2.9-1.5l-0.1,0h0
	L2.7,33.7c0.7-2.1,1.6-4.1,2.6-6.1c0.9-1.9,2-3.7,3.1-5.4l41.4,21.1l0.3-0.1L91.5,22c1.2,1.7,2.2,3.5,3.2,5.4
	C95.6,29.4,96.5,31.4,97.2,33.5z"/>
<path class="st4" d="M97.2,33.5L52.8,56.1c0,0,0,0,0,0c0,0,0,0,0,0l0,0l-2.7,1.4V43.1L91.5,22
	c1.2,1.7,2.2,3.5,3.2,5.4C95.6,29.4,96.5,31.4,97.2,33.5z"/>
<path class="st5" d="M94.6,27.4L50.3,50l-0.3,0.1l-0.2,0.1l0,0L49.3,50l-44-22.4c0.9-1.9,2-3.7,3.1-5.4l41.4,21.1
	l0.3-0.1L91.5,22C92.6,23.8,93.7,25.6,94.6,27.4z"/>
<path class="st3" d="M94.6,27.4L50.3,50l-0.3,0.1v-7L91.5,22C92.6,23.8,93.7,25.6,94.6,27.4z"/>
<path class="st6" d="M52.8,52.9v4.3c0,0.8-0.3,1.6-0.9,2.1s-1.3,0.9-2.1,0.9h0c-1.6,0-3-1.3-3-3v-4.3c0-1.6,1.3-3,3-3
	h0C51.5,49.9,52.8,51.3,52.8,52.9z"/>
<path class="st7" d="M52.8,52.9v4.3c0,0.8-0.3,1.6-0.9,2.1s-1.3,0.9-2.1,0.9V49.9C51.5,49.9,52.8,51.3,52.8,52.9z"/>
<path class="st6" d="M67.7,73.7v5.6c0,9.9-8,17.9-17.9,17.9c-9.9,0-17.9-8-17.9-17.9v-5.6H67.7z"/>
<path class="st7" d="M67.7,73.7v5.6c0,9.9-8,17.9-17.9,17.9V73.7H67.7z"/>
<path class="st8" d="M67.7,73.7c0,9.9-8,17.9-17.9,17.9c-0.1,0-0.1,0-0.2,0C39.9,91.5,32,83.5,32,73.7
	c0-9.9,8-17.9,17.9-17.9c0,0,0.1,0,0.1,0C59.7,55.9,67.7,63.9,67.7,73.7z"/>
<path id="Shape_12_" class="st6" d="M67.7,73.7c0,9.9-8,17.9-17.9,17.9V55.9C59.7,55.9,67.7,63.9,67.7,73.7z"/>
<path id="Shape_13_" class="st9" d="M61.2,73.7c0,6.3-5.1,11.4-11.4,11.4c-6.3,0-11.4-5.1-11.4-11.4s5.1-11.4,11.4-11.4
	C56.1,62.3,61.2,67.4,61.2,73.7z"/>
<path class="st8" d="M61.2,73.7c0,6.3-5.1,11.4-11.4,11.4V62.3C56.1,62.3,61.2,67.4,61.2,73.7z"/>
<path class="st6" d="M55.7,73.2l-1.3,1.3c-0.3,0.3-0.5,0.8-0.4,1.3l0.3,1.8c0.2,1.2-1,2.1-2.1,1.5l-1.7-0.9
	c-0.2-0.1-0.4-0.2-0.7-0.2c-0.2,0-0.5,0.1-0.7,0.2l-1.7,0.9c-1.1,0.6-2.3-0.3-2.1-1.5l0.3-1.8c0.1-0.5-0.1-0.9-0.4-1.3L44,73.2
	c-0.9-0.8-0.4-2.3,0.8-2.5l1.9-0.3c0.5-0.1,0.9-0.4,1.1-0.8l0.8-1.7c0.3-0.5,0.8-0.8,1.3-0.8s1,0.3,1.3,0.8l0.8,1.7
	c0.2,0.4,0.6,0.7,1.1,0.8l1.9,0.3C56.1,70.9,56.6,72.3,55.7,73.2z"/>
<path class="st7" d="M55.7,73.2l-1.3,1.3c-0.3,0.3-0.5,0.8-0.4,1.3l0.3,1.8c0.2,1.2-1,2.1-2.1,1.5l-1.7-0.9
	c-0.2-0.1-0.4-0.2-0.7-0.2V67.2c0.5,0,1,0.3,1.3,0.8l0.8,1.7c0.2,0.4,0.6,0.7,1.1,0.8l1.9,0.3C56.1,70.9,56.6,72.3,55.7,73.2z"/>
<path class="st10" d="M30.4,56.8h-0.3c-1.3,0-2.4-1.1-2.4-2.4v-0.3H26v0.3c0,1.3-1.1,2.4-2.4,2.4h-0.3v1.7h0.3
	c1.3,0,2.4,1.1,2.4,2.4v0.3h1.7v-0.3c0-1.3,1.1-2.4,2.4-2.4h0.3V56.8z"/>
<path class="st10" d="M28.6,83.2h-0.3c-1.3,0-2.4-1.1-2.4-2.4v-0.3h-1.7v0.3c0,1.3-1.1,2.4-2.4,2.4h-0.3v1.7h0.3
	c1.3,0,2.4,1.1,2.4,2.4v0.3h1.7v-0.3c0-1.3,1.1-2.4,2.4-2.4h0.3V83.2z"/>
<path class="st10" d="M91.7,61.7h-0.3c-1.3,0-2.4-1.1-2.4-2.4v-0.3h-1.7v0.3c0,1.3-1.1,2.4-2.4,2.4h-0.3v1.7H85
	c1.3,0,2.4,1.1,2.4,2.4v0.3h1.7v-0.3c0-1.3,1.1-2.4,2.4-2.4h0.3V61.7z"/>
<path class="st10" d="M79.8,79.7h-0.3c-1.3,0-2.4-1.1-2.4-2.4V77h-1.7v0.3c0,1.3-1.1,2.4-2.4,2.4h-0.3v1.7H73
	c1.3,0,2.4,1.1,2.4,2.4V84h1.7v-0.3c0-1.3,1.1-2.4,2.4-2.4h0.3V79.7z"/>
<path class="st10" d="M76.3,55.2H76c-1.3,0-2.4-1.1-2.4-2.4v-0.3h-1.7v0.3c0,1.3-1.1,2.4-2.4,2.4h-0.3v1.7h0.3
	c1.3,0,2.4,1.1,2.4,2.4v0.3h1.7v-0.3c0-1.3,1.1-2.4,2.4-2.4h0.3V55.2z"/>
<path class="st10" d="M15.5,63.3h-0.3c-1.3,0-2.4-1.1-2.4-2.4v-0.3h-1.7v0.3c0,1.3-1.1,2.4-2.4,2.4H8.5V65h0.3
	c1.3,0,2.4,1.1,2.4,2.4v0.3h1.7v-0.3c0-1.3,1.1-2.4,2.4-2.4h0.3V63.3z"/>
</svg>
