<?xml version="1.0" encoding="UTF-8"?>
<svg width="18px" height="18px" viewBox="0 0 18 18" version="1.1" xmlns="http://www.w3.org/2000/svg" xmlns:xlink="http://www.w3.org/1999/xlink">
    <!-- Generator: Sketch 51 (57462) - http://www.bohemiancoding.com/sketch -->
    <title>request</title>
    <desc>Created with Sketch.</desc>
    <defs></defs>
    <g id="Page-1" stroke="none" stroke-width="1" fill="none" fill-rule="evenodd">
        <g id="books" transform="translate(-990.000000, -35.000000)">
            <rect fill="#FFFFFF" x="0" y="0" width="1300" height="810"></rect>
            <g id="request" transform="translate(985.000000, 30.000000)">
                <rect id="Rectangle" x="0" y="0" width="28" height="28"></rect>
                <path d="M6.67576276,6.69251105 C6.90563876,6.46266181 7.98574102,6.47840491 10.0058157,7.62292819 C8.98711864,8.07318082 8.08572134,8.73517813 7.34728407,9.55067065 C6.55767578,8.02752584 6.37975806,6.98848131 6.67576276,6.69251105 M11.5291377,17.1711176 C11.5291377,17.8016288 11.015853,18.3148538 10.3844813,18.3148538 C9.75389678,18.3148538 9.24061203,17.8016288 9.24061203,17.1711176 C9.24061203,16.5406065 9.75389678,16.0273815 10.3844813,16.0273815 C11.015853,16.0273815 11.5291377,16.5406065 11.5291377,17.1711176 M13.1768448,10.0993176 C14.0451777,10.0993176 14.7513379,10.8053956 14.7513379,11.6736275 C14.7513379,12.5418594 14.0451777,13.2479374 13.1768448,13.2479374 C12.3085118,13.2479374 11.6023517,12.5418594 11.6023517,11.6736275 C11.6023517,10.8053956 12.3085118,10.0993176 13.1768448,10.0993176 M16.325831,14.4286698 C16.9768839,14.4286698 17.5067008,14.957638 17.5067008,15.6094022 C17.5067008,16.2603794 16.9768839,16.7901347 16.325831,16.7901347 C15.6747781,16.7901347 15.1449612,16.2603794 15.1449612,15.6094022 C15.1449612,14.957638 15.6747781,14.4286698 16.325831,14.4286698 M20.3770017,17.9929074 C21.520871,20.0119598 21.5374031,21.0927236 21.3075272,21.3225728 C21.009948,21.6177559 19.9715698,21.4398589 18.4490349,20.6511297 C19.2646224,19.9127783 19.9266967,19.0114859 20.3770017,17.9929074 M5.30437927,14.8222473 C5.30437927,19.1626197 8.8359673,22.6937967 13.1768448,22.6937967 C14.5868034,22.6937967 15.9070158,22.3167495 17.0532468,21.6649852 C18.497057,22.4977951 19.8322271,23 20.8832013,23 C21.5074878,23 22.0325812,22.8236773 22.4206938,22.4356099 C23.89993,20.9565458 22.2270311,17.8425608 20.9603514,15.9447302 C21.0130969,15.5771289 21.0493103,15.2040174 21.0493103,14.8222473 C21.0493103,10.4810878 17.5177223,6.95069787 13.1768448,6.95069787 C12.7950302,6.95069787 12.4218753,6.986907 12.0542312,7.03964638 C10.1648395,5.77783701 7.04183241,4.09804836 5.56259614,5.57947396 C4.5218562,6.61930564 5.00916182,8.643081 6.33488501,10.9439349 C5.68225762,12.0900325 5.30437927,13.4116656 5.30437927,14.8222473" id="Fill-1317" fill="#17BEBB"></path>
            </g>
        </g>
    </g>
</svg>