<?xml version="1.0" encoding="utf-8"?>
<svg version="1.1" id="Layer_1" xmlns="http://www.w3.org/2000/svg" xmlns:xlink="http://www.w3.org/1999/xlink" x="0px" y="0px"
	 viewBox="0 0 100 100" style="enable-background:new 0 0 100 100;" xml:space="preserve" width="100" height="100">
<style type="text/css">
	.st0{fill:#68FCDF;}
	.st1{fill:#10E2C4;}
	.st2{fill:#1ABA9F;}
	.st3{fill:#D0F6FF;}
	.st4{fill:#0F9BE8;}
	.st5{fill:#474F6F;}
	.st6{fill:#323B5A;}
	.st7{fill:#FFFFFF;}
	.st8{fill:#8FC9F7;}
	.st9{fill:#65B2FF;}
</style>
<path class="st0" d="M100,50c0,27.6-22.4,50-50,50S0,77.6,0,50S22.4,0,50,0S100,22.4,100,50z"/>
<path class="st1" d="M100,50c0,5.1-0.8,10-2.2,14.6C91.6,85.1,72.5,100,50,100c-20.4,0-38-12.2-45.7-29.8C1.5,64,0,57.2,0,50c0-9,2.4-17.5,6.6-24.8C15.2,40.2,31.4,50.4,50,50.4s34.8-10.1,43.4-25.2C97.6,32.5,100,41,100,50z"/>
<path class="st2" d="M6,73.8c1.4,2.6,3,5,4.8,7.3C20,92.6,34.1,100,50,100s30-7.4,39.2-18.9c1.8-2.3,3.4-4.7,4.8-7.3H6z"/>
<path class="st3" d="M93,40.8l-8.7,45.6c-7.6,7.2-17.5,12-28.5,13.3c-0.1,0-0.2,0-0.3,0c-0.4,0-0.8,0.1-1.2,0.1c-0.9,0.1-1.9,0.1-2.8,0.2c-0.5,0-0.9,0-1.4,0s-0.9,0-1.4,0c-2.4-0.1-4.7-0.3-7-0.7c-4.9-0.8-9.6-2.4-13.9-4.5l2.8-14.6l1-5.1l1.3-6.7l1-5.1l1.3-6.7l1-5.1l3.8-19.7l0.2-1.2l6.2,1.2l20.3,3.9l2.1,0.4L93,40.8z"/>
<path class="st4" d="M55.8,99.7c11-1.3,20.9-6.1,28.5-13.3L93,40.8l-24.4-4.7l-2.1-0.4l-3.7,19.4l-1,5v0l-0.6,3.3l-0.6,3.3l-0.3,1.7l-0.6,3.2L59,75.2l-0.6,3.1L58,80.2l-0.6,3l-0.6,3l-1.4,7.2l-1.2,6.3c0.4,0,0.8-0.1,1.2-0.1L55.8,99.7z"/>
<polygon class="st5" points="43.3,56.5 44.3,51.6 82.9,59 81.9,63.9 "/>
<polygon class="st5" points="41.1,68.1 42.1,63.2 80.6,70.6 79.7,75.5 "/>
<polygon class="st5" points="38.9,79.7 39.8,74.8 78.4,82.1 77.5,87.1 "/>
<path class="st6" d="M61.9,60.1l1-5l20,3.8l-1,5L61.9,60.1z M59.6,71.7l1-5l20,3.8l-1,5L59.6,71.7z M57.4,83.3l1-5l20,3.8l-1,5L57.4,83.3z"/>
<path class="st7" d="M68.6,31.8v55c-1,1-1.8,1.8-2.7,2.7c-0.1,0.1-0.3,0.3-0.4,0.4c-1.8,1.8-3.3,3.3-5,5
	c-0.1,0.1-0.3,0.3-0.4,0.4c-0.3,0.3-0.5,0.5-0.8,0.8c-0.1,0.1-0.3,0.3-0.4,0.4c-0.1,0.1-0.3,0.3-0.4,0.4l-0.8,0.8
	c-0.6,0.6-1.3,1.3-1.9,1.9c-0.1,0-0.2,0-0.3,0c-0.4,0-0.8,0.1-1.2,0.1c-0.9,0.1-1.9,0.1-2.8,0.2h-2.8c-2.4-0.1-4.7-0.3-7-0.7
	c-4.9-0.8-9.6-2.4-13.9-4.5c-4.9-2.4-9.3-5.6-13.1-9.4V31.8H68.6z"/>
<path class="st3" d="M68.6,31.8v55c-1,1-1.8,1.8-2.7,2.7c-0.1,0.1-0.3,0.3-0.4,0.4c-1.8,1.8-3.3,3.3-5,5
	c-0.1,0.1-0.3,0.3-0.4,0.4c-0.3,0.3-0.5,0.5-0.8,0.8l-0.4,0.4c-0.1,0.1-0.3,0.3-0.4,0.4l-0.8,0.8c-0.6,0.6-1.3,1.3-1.9,1.9
	c-0.1,0-0.2,0-0.3,0c-0.4,0-0.8,0.1-1.2,0.1c-0.9,0.1-1.9,0.1-2.8,0.2h-2.8c-2.4-0.1-4.7-0.3-7-0.7V31.8H68.6z"/>
<path class="st8" d="M55.8,99.7c0.7-0.7,1.3-1.3,1.9-1.9l0.8-0.8c0.1-0.1,0.3-0.3,0.4-0.4l0.4-0.4
	c0.3-0.3,0.5-0.5,0.8-0.8c0.1-0.1,0.3-0.3,0.4-0.4c1.7-1.7,3.2-3.2,5-5c0.1-0.1,0.3-0.3,0.4-0.4c0.8-0.8,1.7-1.7,2.7-2.7v-0.5H55.5
	v13.4L55.8,99.7z"/>
<path class="st5" d="M22.7,51.6H62v5.1H22.7V51.6z M22.7,63.4H62v5.1H22.7V63.4z M22.7,75.2H62v5.1H22.7V75.2z"/>
<path class="st6" d="M41.6,51.6H62v5.1H41.6V51.6z M41.6,63.4H62v5.1H41.6V63.4z M41.6,75.2H62v5.1H41.6V75.2z"/>
<path class="st9" d="M35.3,39.3v3.3c0,1.7-0.7,3.3-1.8,4.4c-1,1-2.4,1.7-4,1.8c-0.1,0-0.3,0-0.4,0
	c-3.5,0-6.3-2.8-6.3-6.3v-7.8c0-2.3,1.9-4.2,4.2-4.2H34c0.7,0,1.2,0.5,1.3,1.2c0,0.7-0.6,1.3-1.3,1.3h-6.3c-1.4,0-2.5,1.1-2.5,2.5v7
	c0,1,0.4,2,1.1,2.7s1.6,1.1,2.7,1.1c0.1,0,0.3,0,0.4,0c1.9-0.2,3.3-1.8,3.3-3.7v-3.3c0-0.7-0.5-1.2-1.2-1.3c-0.7,0-1.3,0.6-1.3,1.3
	v3.3c0,0.5-0.3,1-0.8,1.2c-0.1,0-0.3,0.1-0.4,0.1c-0.7,0-1.3-0.6-1.3-1.3v-3.3c0-1.3,0.7-2.5,1.7-3.2c0.6-0.4,1.3-0.6,2-0.6
	C33.6,35.6,35.3,37.3,35.3,39.3z"/>
<path class="st4" d="M34,33.2h-4.6v-2.5H34c0.7,0,1.2,0.5,1.3,1.2C35.3,32.6,34.7,33.2,34,33.2z"/>
<path class="st4" d="M35.3,39.3v3.3c0,1.7-0.7,3.3-1.8,4.4c-1,1-2.4,1.7-4,1.8v-2.5c1.9-0.2,3.3-1.8,3.3-3.7v-3.3c0-0.7-0.5-1.2-1.2-1.3c-0.7,0-1.3,0.6-1.3,1.3v3.3c0,0.5-0.3,1-0.8,1.2v-7.6c0.6-0.4,1.3-0.6,2-0.6C33.6,35.6,35.3,37.3,35.3,39.3z"/>
</svg>
