<?xml version="1.0" encoding="UTF-8"?>
<svg width="66px" height="66px" viewBox="0 0 66 66" version="1.1" xmlns="http://www.w3.org/2000/svg" xmlns:xlink="http://www.w3.org/1999/xlink">
    <!-- Generator: Sketch 51.2 (57519) - http://www.bohemiancoding.com/sketch -->
    <title>Shape</title>
    <desc>Created with Sketch.</desc>
    <defs></defs>
    <g id="Page-1" stroke="none" stroke-width="1" fill="none" fill-rule="evenodd">
        <g id="Desktop-HD" transform="translate(-617.000000, -2253.000000)" fill="#FFFFFF" fill-rule="nonzero">
            <path d="M678.575388,2269.43521 C675.624342,2264.37956 671.621437,2260.37668 666.565619,2257.4258 C661.508898,2254.47506 655.988781,2253 650.001054,2253 C644.013928,2253 638.492156,2254.47506 633.436338,2257.4258 C628.380219,2260.37623 624.377313,2264.37911 621.426268,2269.43521 C618.475071,2274.49161 617,2280.01335 617,2286 C617,2291.98695 618.475523,2297.50779 621.425816,2302.56449 C624.376711,2307.62013 628.379617,2311.62302 633.435736,2314.5742 C638.492156,2317.52478 644.013477,2319 650.000452,2319 C655.987426,2319 661.509349,2317.52478 666.565468,2314.5742 C671.621286,2311.62407 675.624041,2307.62013 678.574786,2302.56449 C681.525079,2297.50824 683,2291.98665 683,2286 C683.000151,2280.01275 681.525079,2274.49085 678.575388,2269.43521 Z M663.527156,2287.67711 L661.139683,2290.05789 L651.641443,2299.52835 C651.325938,2299.84266 650.932498,2300 650.460298,2300 C649.988189,2300 649.594657,2299.84257 649.279612,2299.52835 L646.891863,2297.14766 C646.55954,2296.81713 646.393378,2296.42392 646.393378,2295.97041 C646.393378,2295.51755 646.559632,2295.12489 646.891863,2294.79317 L651.851167,2289.84906 L638.679171,2289.84906 C638.224432,2289.84906 637.830993,2289.68292 637.498485,2289.35166 C637.166254,2289.02058 637,2288.62792 637,2288.17441 L637,2284.8254 C637,2284.37199 637.166254,2283.97951 637.498485,2283.64816 C637.830901,2283.31671 638.22434,2283.15094 638.679171,2283.15094 L651.851259,2283.15094 L646.891955,2278.20637 C646.57691,2277.89225 646.419571,2277.50005 646.419571,2277.02913 C646.419571,2276.55803 646.57691,2276.16592 646.891955,2275.85152 L649.279704,2273.47073 C649.594657,2273.15688 649.988281,2273 650.46039,2273 C650.933234,2273 651.32603,2273.15679 651.641535,2273.47073 L661.139775,2282.94183 L663.527248,2285.32262 C663.842661,2285.63665 664,2286.02886 664,2286.49986 C663.999908,2286.97087 663.842569,2287.36325 663.527156,2287.67711 Z" id="Shape"></path>
        </g>
    </g>
</svg>