<?xml version="1.0" encoding="utf-8"?>
<svg version="1.1" xmlns="http://www.w3.org/2000/svg" xmlns:xlink="http://www.w3.org/1999/xlink" x="0px" y="0px"
	 viewBox="0 0 100 100" style="enable-background:new 0 0 100 100;" xml:space="preserve" height="100" width="100">
<style type="text/css">
	.st0{fill:#FF7195;}
	.st1{fill:#FF3445;}
	.st2{fill:#AC000E;}
	.st3{fill:#D0F6FF;}
	.st4{fill:#FFFFFF;}
	.st5{fill:#FFD112;}
	.st6{fill:#FF9F00;}
	.st7{fill:#E3835A;}
	.st8{fill:#FFA87A;}
	.st9{fill:#FFC0A4;}
	.st10{fill:#323B5A;}
	.st11{fill:#474F6F;}
	.st12{fill:#DD1265;}
	.st13{fill:#CC5A28;}
</style>
<path class="st0" d="M100,50c0,27.6-22.4,50-50,50S0,77.6,0,50S22.4,0,50,0S100,22.4,100,50z"/>
<path class="st1" d="M100,50c0,5.1-0.8,10-2.2,14.6C91.6,85.1,72.5,100,50,100c-20.4,0-38-12.2-45.7-29.8C1.5,64,0,57.2,0,50c0-9,2.4-17.5,6.6-24.8C15.2,40.2,31.4,50.4,50,50.4s34.8-10.1,43.4-25.2C97.6,32.5,100,41,100,50z"/>
<path class="st2" d="M6,73.8c1.4,2.6,3,5,4.8,7.3C20,92.6,34.1,100,50,100s30-7.4,39.2-18.9c1.8-2.3,3.4-4.7,4.8-7.3H6z"/>
<polygon class="st3" points="32,64.2 68.4,64.2 68.4,75.7 32,75.7 "/>
<path class="st4" d="M50.6,82.8V100h-0.7c-6.2,0-12.2-1.2-17.7-3.3c-4.8-1.9-9.3-4.4-13.3-7.6c-1.9-1.5-3.7-3.2-5.4-5
	v-1.3c0-1,0.1-1.9,0.2-2.8c0.2-1.5,0.6-2.9,1.2-4.3c1.3-3.1,3.4-5.7,6-7.7c0,0,0.1-0.1,0.1-0.1c1.2-0.9,2.5-1.6,3.9-2.2
	c0.2-0.1,0.3-0.1,0.5-0.2c0.1,0,0.2-0.1,0.2-0.1c0.1,0,0.2-0.1,0.2-0.1c0.3-0.1,0.6-0.2,0.9-0.3c0.1,0,0.3-0.1,0.4-0.1
	c0.2,0,0.3-0.1,0.5-0.1c0,0,0,0,0.1,0c0.1,0,0.2-0.1,0.4-0.1c0.1,0,0.3-0.1,0.4-0.1c0.1,0,0.1,0,0.2,0c0.3,0,0.5-0.1,0.8-0.1
	c0.8-0.1,1.7-0.2,2.5-0.2h0.2c0.9,0,1.7,0.1,2.5,0.2h0c0.2,0,0.3,0,0.5,0.1c0,0,0,0,0.1,0c0,0,0,0,0,0c0,0,0,0,0,0
	c0.1,0,0.2,0,0.3,0.1c0.1,0,0.2,0,0.3,0.1c0.1,0,0.2,0,0.3,0.1c0.1,0,0.1,0,0.2,0c0,0,0,0,0,0v0c0,0,0.1,0,0.1,0
	c0.2,0,0.3,0.1,0.5,0.1c0,0,0.1,0,0.1,0c0.1,0,0.2,0.1,0.3,0.1c0,0,0.1,0,0.1,0c0.2,0,0.3,0.1,0.4,0.1c0,0,0,0,0,0
	c0.1,0,0.1,0,0.2,0.1c0,0,0,0,0,0h0c0,0,0,0,0,0c0,0,0.1,0,0.1,0c0.1,0,0.3,0.1,0.4,0.2c0.1,0,0.2,0.1,0.3,0.1c0,0,0,0,0,0
	c0.1,0.1,0.3,0.1,0.4,0.2c0.1,0.1,0.3,0.1,0.4,0.2c0.1,0,0.2,0.1,0.3,0.1c0.1,0.1,0.2,0.1,0.4,0.2c0.1,0.1,0.2,0.1,0.3,0.2
	c0,0,0.1,0,0.1,0c0.1,0.1,0.2,0.1,0.3,0.2c0.1,0.1,0.2,0.1,0.3,0.2c0.1,0,0.2,0.1,0.2,0.1c0.4,0.3,0.8,0.5,1.2,0.8
	c0.1,0.1,0.2,0.2,0.4,0.3c0.1,0.1,0.3,0.2,0.4,0.3c0.1,0.1,0.2,0.2,0.3,0.3c0.5,0.4,1,0.9,1.5,1.4c0,0,0.1,0.1,0.1,0.1
	c0.2,0.2,0.4,0.4,0.6,0.7c0,0.1,0.1,0.1,0.1,0.2c0.1,0.1,0.2,0.2,0.3,0.3c0.1,0.1,0.2,0.2,0.3,0.4c0.1,0.1,0.2,0.2,0.3,0.4
	c0,0,0.1,0.1,0.1,0.1c0,0,0,0,0,0c0.1,0.1,0.1,0.2,0.2,0.3c0.6,1,1.2,2,1.6,3c0.1,0.1,0.1,0.3,0.2,0.4c0,0.1,0.1,0.2,0.1,0.3
	c0,0.1,0,0.1,0.1,0.2c0,0.1,0.1,0.2,0.1,0.3c0.2,0.5,0.3,1,0.4,1.5c0,0.1,0.1,0.2,0.1,0.3c0,0.1,0,0.2,0.1,0.3c0,0,0,0.1,0,0.1
	c0,0,0,0,0,0c0,0.1,0,0.2,0,0.2c0,0.1,0,0.3,0.1,0.4c0,0.1,0,0.2,0,0.2c0,0.3,0.1,0.6,0.1,0.9c0,0,0,0.1,0,0.1c0,0.1,0,0.1,0,0.2
	c0,0,0,0.1,0,0.1c0,0.1,0,0.3,0,0.4c0,0.1,0,0.1,0,0.2c0,0.1,0,0.2,0,0.2C50.6,82.5,50.6,82.6,50.6,82.8z"/>
<path class="st3" d="M50.6,82.8V100h-0.7c-6.2,0-12.2-1.2-17.7-3.3V64.2c0.9,0,1.7,0.1,2.5,0.2h0c0.2,0,0.3,0,0.5,0.1
	c0,0,0,0,0.1,0c0,0,0,0,0,0c0,0,0,0,0,0c0.1,0,0.2,0,0.3,0.1c0.1,0,0.2,0,0.3,0.1c0.1,0,0.2,0,0.3,0.1c0.1,0,0.1,0,0.2,0
	c0,0,0,0,0,0v0c0,0,0.1,0,0.1,0c0.2,0,0.3,0.1,0.5,0.1c0,0,0.1,0,0.1,0c0.1,0,0.2,0.1,0.3,0.1c0,0,0.1,0,0.1,0
	c0.2,0,0.3,0.1,0.4,0.1c0,0,0,0,0,0c0.1,0,0.1,0,0.2,0.1c0,0,0,0,0,0h0c0,0,0,0,0,0c0,0,0.1,0,0.1,0c0.1,0,0.3,0.1,0.4,0.2
	c0.1,0,0.2,0.1,0.3,0.1c0,0,0,0,0,0c0.1,0.1,0.3,0.1,0.4,0.2c0.1,0.1,0.3,0.1,0.4,0.2c0.1,0,0.2,0.1,0.3,0.1
	c0.1,0.1,0.2,0.1,0.4,0.2c0.1,0.1,0.2,0.1,0.3,0.2c0,0,0.1,0,0.1,0c0.1,0.1,0.2,0.1,0.3,0.2c0.1,0.1,0.2,0.1,0.3,0.2
	c0.1,0,0.2,0.1,0.2,0.1c0.4,0.3,0.8,0.5,1.2,0.8c0.1,0.1,0.2,0.2,0.4,0.3c0.1,0.1,0.3,0.2,0.4,0.3c0.1,0.1,0.2,0.2,0.3,0.3
	c0.5,0.4,1,0.9,1.5,1.4c0,0,0.1,0.1,0.1,0.1c0.2,0.2,0.4,0.4,0.6,0.7c0,0.1,0.1,0.1,0.1,0.2c0.1,0.1,0.2,0.2,0.3,0.3
	c0.1,0.1,0.2,0.2,0.3,0.4c0.1,0.1,0.2,0.2,0.3,0.4c0,0,0.1,0.1,0.1,0.1c0,0,0,0,0,0c0.1,0.1,0.1,0.2,0.2,0.3c0.6,1,1.2,2,1.6,3
	c0.1,0.1,0.1,0.3,0.2,0.4c0,0.1,0.1,0.2,0.1,0.3c0,0.1,0,0.1,0.1,0.2c0,0.1,0.1,0.2,0.1,0.3c0.2,0.5,0.3,1,0.4,1.5
	c0,0.1,0.1,0.2,0.1,0.3c0,0.1,0,0.2,0.1,0.3c0,0,0,0.1,0,0.1c0,0,0,0,0,0c0,0.1,0,0.2,0,0.2c0,0.1,0,0.3,0.1,0.4c0,0.1,0,0.2,0,0.2
	c0,0.3,0.1,0.6,0.1,0.9c0,0,0,0.1,0,0.1c0,0.1,0,0.1,0,0.2c0,0,0,0.1,0,0.1c0,0.1,0,0.3,0,0.4c0,0.1,0,0.1,0,0.2c0,0.1,0,0.2,0,0.2
	C50.6,82.5,50.6,82.6,50.6,82.8z"/>
<path class="st5" d="M39,65.6c-0.3,3.6-3.2,6.5-6.9,6.6c-0.1,0-0.1,0-0.2,0c-3.7,0-6.8-2.9-7-6.5
	c1.4-0.6,2.9-1,4.5-1.2c0.8-0.1,1.7-0.2,2.5-0.2h0.2c0.9,0,1.7,0.1,2.5,0.2h0c0.3,0,0.6,0.1,0.9,0.2c0.1,0,0.2,0,0.3,0.1
	c0.1,0,0.2,0,0.3,0.1c0.1,0,0.2,0.1,0.3,0.1c0.2,0,0.3,0.1,0.5,0.1c0.1,0,0.2,0.1,0.4,0.1c0,0,0.1,0,0.1,0c0.2,0,0.3,0.1,0.4,0.1
	c0,0,0,0,0,0c0.1,0,0.2,0.1,0.2,0.1c0,0,0.1,0,0.1,0c0.1,0,0.3,0.1,0.4,0.2C38.8,65.5,38.9,65.6,39,65.6z"/>
<path class="st6" d="M39,65.6c-0.3,3.6-3.2,6.5-6.9,6.6v-7.9c0.9,0,1.7,0.1,2.5,0.2h0c0.3,0,0.6,0.1,0.9,0.2
	c0.1,0,0.2,0,0.3,0.1c0.1,0,0.2,0,0.3,0.1c0.1,0,0.2,0.1,0.3,0.1c0.2,0,0.3,0.1,0.5,0.1c0.1,0,0.2,0.1,0.4,0.1c0,0,0.1,0,0.1,0
	c0.2,0,0.3,0.1,0.4,0.1c0,0,0,0,0,0c0.1,0,0.2,0.1,0.2,0.1c0,0,0.1,0,0.1,0c0.1,0,0.3,0.1,0.4,0.2C38.8,65.5,38.9,65.6,39,65.6z"/>
<path class="st7" d="M49.3,45.3c2.1,0,3.8,1.7,3.8,3.8c0,3.8-3.1,7-7,7V45.3L49.3,45.3z"/>
<path class="st7" d="M14.9,45.3c-2.1,0-3.8,1.7-3.8,3.8c0,3.8,3.1,7,7,7V45.3L14.9,45.3z"/>
<path class="st7" d="M27.6,58.6v6.2c0,2.4,2,4.4,4.4,4.4c2.4,0,4.4-2,4.4-4.4v-6.2H27.6z"/>
<path class="st8" d="M27.6,58.6v6.2c0,2.4,2,4.4,4.4,4.4V58.6H27.6z"/>
<path class="st8" d="M17.1,46v5.6c0,8.2,6.7,14.9,14.9,14.9c0,0,0,0,0,0c8.2,0,14.9-6.7,14.9-14.9V46
	c0-0.8-0.1-1.7-0.2-2.5c-1-5.8-5.3-10.5-10.9-12c-1.2-0.3-2.5-0.5-3.8-0.5c0,0,0,0,0,0c-1.3,0-2.6,0.2-3.8,0.5
	c-5.6,1.5-10,6.1-10.9,12C17.2,44.4,17.1,45.2,17.1,46z"/>
<path class="st9" d="M17.1,46v5.6c0,8.2,6.7,14.9,14.9,14.9V31.1c-1.3,0-2.6,0.2-3.8,0.5c-5.6,1.5-10,6.1-10.9,12C17.2,44.4,17.1,45.2,17.1,46z"/>
<path class="st10" d="M38.5,49.8c0,1-0.8,1.8-1.8,1.8c-1,0-1.8-0.8-1.8-1.8s0.8-1.8,1.8-1.8C37.7,48,38.5,48.8,38.5,49.8z"/>
<path class="st10" d="M29.2,49.8c0,1-0.8,1.8-1.8,1.8c-1,0-1.8-0.8-1.8-1.8s0.8-1.8,1.8-1.8C28.3,48,29.2,48.8,29.2,49.8z"/>
<path class="st10" d="M13.9,44.7c0,0.9,0.7,1.6,1.5,1.7c0.8,0.1,1.5,0.1,2.3,0.1c5.7,0,10.8-2.4,14.3-6.3
	c3.6,3.9,8.7,6.3,14.3,6.3c0.8,0,1.5,0,2.3-0.1c0.4-0.1,0.8-0.3,1.1-0.6c0.3-0.3,0.4-0.7,0.4-1.2c0-6.8-3.6-13.1-9.6-16.2
	c-1.2-0.6-2.5-1.1-3.8-1.5c-1.5-0.4-3-0.6-4.6-0.6c0,0,0,0,0,0c-1.6,0-3.2,0.2-4.6,0.6c-0.8,0.2-1.5,0.5-2.2,0.7
	c-3.4,1.4-6.2,3.8-8.2,6.7C15,37.4,13.9,41,13.9,44.7z"/>
<path class="st11" d="M13.9,44.7c0,0.9,0.7,1.6,1.5,1.7c0.8,0.1,1.5,0.1,2.3,0.1c5.7,0,10.8-2.4,14.3-6.3V26.4c-1.6,0-3.2,0.2-4.6,0.6c-0.8,0.2-1.5,0.5-2.2,0.7c-3.4,1.4-6.2,3.8-8.2,6.7C15,37.4,13.9,41,13.9,44.7z"/>
<path class="st7" d="M32,55c-0.7,0-1.3-0.6-1.3-1.3v-5.6c0-0.7,0.6-1.3,1.3-1.3s1.3,0.6,1.3,1.3v5.6C33.3,54.4,32.7,55,32,55z"/>
<path class="st0" d="M87,82.8v0.9c-1.3,1.4-2.7,2.8-4.1,4c-4.2,3.7-9,6.6-14.3,8.8c-5.6,2.2-11.7,3.5-18,3.6v0h-0.7
	V82.8c0-1.2,0.1-2.4,0.3-3.5c0,0,0,0,0,0c0.2-1.2,0.6-2.4,1.1-3.6c1.3-3.1,3.4-5.8,6-7.7c1.2-0.9,2.6-1.7,4-2.3
	c0.3-0.1,0.7-0.3,1.1-0.4c0.6-0.2,1.2-0.4,1.8-0.5c0.6-0.1,1.1-0.2,1.7-0.3c0.5-0.1,0.9-0.1,1.4-0.1c0.2,0,0.4,0,0.6,0
	c0.1,0,0.2,0,0.3,0c0.1,0,0.2,0,0.3,0h0.2c0.1,0,0.2,0,0.3,0c0.8,0,1.5,0.1,2.3,0.2h0c0.6,0.1,1.2,0.2,1.8,0.3
	c0.6,0.1,1.2,0.3,1.7,0.5c0.9,0.3,1.8,0.7,2.7,1.2c0.9,0.5,1.7,1,2.4,1.6c2.2,1.7,4,3.9,5.2,6.4c0.5,1,0.9,2,1.2,3.1
	C86.7,79.2,87,81,87,82.8z"/>
<path class="st1" d="M87,82.8v0.9c-1.3,1.4-2.7,2.8-4.1,4c-4.2,3.7-9,6.6-14.3,8.8V64.2c0.1,0,0.2,0,0.3,0
	c0.8,0,1.5,0.1,2.3,0.2h0c0.6,0.1,1.2,0.2,1.8,0.3c0.6,0.1,1.2,0.3,1.7,0.5c0.9,0.3,1.8,0.7,2.7,1.2c0.9,0.5,1.7,1,2.4,1.6
	c2.2,1.7,4,3.9,5.2,6.4c0.5,1,0.9,2,1.2,3.1C86.7,79.2,87,81,87,82.8z"/>
<path class="st1" d="M75.4,65.6c-0.3,3.6-3.2,6.5-6.9,6.6c-0.1,0-0.1,0-0.2,0c-3.7,0-6.8-2.9-7-6.5
	c1.4-0.6,2.9-1,4.5-1.2c0.8-0.1,1.7-0.2,2.5-0.2h0.2c0.9,0,1.7,0.1,2.5,0.2h0c0.3,0,0.6,0.1,0.9,0.2c0.1,0,0.2,0,0.3,0.1
	c0.1,0,0.2,0,0.3,0.1c0.1,0,0.2,0.1,0.3,0.1c0.2,0,0.3,0.1,0.5,0.1c0.1,0,0.2,0.1,0.4,0.1c0,0,0.1,0,0.1,0c0.2,0,0.3,0.1,0.4,0.1
	c0,0,0,0,0,0c0.1,0,0.2,0.1,0.2,0.1c0,0,0.1,0,0.1,0c0.1,0,0.3,0.1,0.4,0.2C75.2,65.5,75.3,65.6,75.4,65.6z"/>
<path class="st12" d="M75.4,65.6c-0.3,3.6-3.2,6.5-6.9,6.6v-7.9c0.9,0,1.7,0.1,2.5,0.2h0c0.3,0,0.6,0.1,0.9,0.2
	c0.1,0,0.2,0,0.3,0.1c0.1,0,0.2,0,0.3,0.1c0.1,0,0.2,0.1,0.3,0.1c0.2,0,0.3,0.1,0.5,0.1c0.1,0,0.2,0.1,0.4,0.1c0,0,0.1,0,0.1,0
	c0.2,0,0.3,0.1,0.4,0.1c0,0,0,0,0,0c0.1,0,0.2,0.1,0.2,0.1c0,0,0.1,0,0.1,0c0.1,0,0.3,0.1,0.4,0.2C75.2,65.5,75.3,65.6,75.4,65.6z"/>
<path class="st7" d="M85.7,46.5c2.1,0,3.8,1.7,3.8,3.8c0,3.8-3.1,7-7,7V46.5L85.7,46.5z"/>
<path class="st8" d="M51.4,46.5c-2.1,0-3.8,1.7-3.8,3.8c0,3.8,3.1,7,7,7V46.5L51.4,46.5z"/>
<path class="st7" d="M64.2,58.6v6.2c0,2.4,2,4.4,4.4,4.4c2.4,0,4.4-2,4.4-4.4v-6.2H64.2z"/>
<path class="st8" d="M64.2,58.6v6.2c0,2.4,2,4.4,4.4,4.4V58.6H64.2z"/>
<path class="st7" d="M53.6,46v5.6c0,8.2,6.7,14.9,14.9,14.9c0,0,0,0,0,0c8.2,0,14.9-6.7,14.9-14.9V46
	c0-0.8-0.1-1.7-0.2-2.5c-1-5.8-5.3-10.5-10.9-12c-1.2-0.3-2.5-0.5-3.8-0.5c0,0,0,0,0,0c-1.3,0-2.6,0.2-3.8,0.5
	c-5.6,1.5-10,6.1-10.9,12C53.7,44.4,53.6,45.2,53.6,46z"/>
<path class="st8" d="M53.6,46v5.6c0,8.2,6.7,14.9,14.9,14.9V31.1c-1.3,0-2.6,0.2-3.8,0.5c-5.6,1.5-10,6.1-10.9,12C53.7,44.4,53.6,45.2,53.6,46z"/>
<path class="st10" d="M63.8,45.6l0.7,0.3c0.5,0.2,1.1-0.1,1.3-0.6c0.2-0.5-0.1-1.1-0.6-1.3c-1.9-0.7-4-0.5-5.7,0.4c-0.4,0.3-0.2,0.9,0.3,0.9l0.8-0.1C61.6,45.1,62.8,45.2,63.8,45.6z"/>
<path class="st10" d="M75.1,49.8c0,1-0.8,1.8-1.8,1.8s-1.8-0.8-1.8-1.8s0.8-1.8,1.8-1.8S75.1,48.8,75.1,49.8z"/>
<path class="st10" d="M65.7,49.8c0,1-0.8,1.8-1.8,1.8S62,50.8,62,49.8s0.8-1.8,1.8-1.8S65.7,48.8,65.7,49.8z"/>
<path class="st10" d="M64.2,57.3c-1.3,0-2,1.6-1.1,2.5c0.6,0.6,1.2,1.1,1.9,1.5c1.1,0.6,2.3,0.9,3.6,0.9c1.3,0,2.5-0.3,3.6-0.9c0.7-0.4,1.4-0.9,1.9-1.5c0.9-0.9,0.2-2.5-1.1-2.5H64.2z"/>
<path class="st13" d="M68.6,55c-0.7,0-1.3-0.6-1.3-1.3v-5.6c0-0.7,0.6-1.3,1.3-1.3s1.3,0.6,1.3,1.3v5.6C69.8,54.4,69.3,55,68.6,55z"/>
<path class="st1" d="M72.1,61.2c-1.1,0.6-2.3,0.9-3.6,0.9s-2.5-0.3-3.6-0.9c0.9-1,2.1-1.6,3.6-1.6S71.2,60.3,72.1,61.2z"/>
<path class="st12" d="M72.1,61.2c-1.1,0.6-2.3,0.9-3.6,0.9v-2.4C70,59.7,71.2,60.3,72.1,61.2z"/>
<path class="st8" d="M22.3,80.7c0,0.9-0.7,1.6-1.6,1.6h-0.9v4.4c0,1-0.4,1.8-1,2.5c-1.9-1.5-3.7-3.2-5.4-5c-0.5-0.5-0.9-1-1.4-1.5v0c0.2-1.1,0.7-2,1.6-2.6c0.7-0.5,1.6-0.8,2.5-0.8h4.6c0.4,0,0.8,0.2,1.1,0.5C22.1,79.9,22.3,80.2,22.3,80.7z"/>
<path class="st7" d="M89.3,80.9c-0.8,1-1.5,1.9-2.4,2.8c-1.3,1.4-2.7,2.8-4.1,4c-0.8-0.6-1.3-1.6-1.3-2.7v-4.4h-0.9c-0.9,0-1.6-0.7-1.6-1.6c0-0.4,0.2-0.8,0.5-1.1c0.3-0.3,0.7-0.5,1.1-0.5h4.6c0.3,0,0.6,0,0.9,0.1C87.8,77.9,89.1,79.2,89.3,80.9z"/>
<path class="st7" d="M73.9,70l3.2-3.2c1.6-1.6,4.2-1.6,5.8,0l2.4,2.4c1.4,1.4,1.4,3.6,0,5l-0.5,0.5c-1.4,1.4-3.6,1.4-5,0l-3.1-3.1l-0.6,0.6c-0.6,0.6-1.6,0.6-2.2,0C73.2,71.6,73.2,70.6,73.9,70z"/>
<path class="st8" d="M23.1,70l-3.2-3.2c-1.6-1.6-4.2-1.6-5.8,0l-2.4,2.4c-1.4,1.4-1.4,3.6,0,5l0.5,0.5c1.4,1.4,3.6,1.4,5,0l3.1-3.1l0.6,0.6c0.6,0.6,1.6,0.6,2.2,0S23.7,70.6,23.1,70z"/>
<path class="st11" d="M85.7,45.5v1c-2.7,0-5.3-1.2-7-3.3l-4.1-4.9c-1.9,1.7-3.9,3.1-6.1,4.3c-4.7,2.5-10,3.9-15.4,3.9h-0.7c-0.3,0-0.5-0.1-0.7-0.3s-0.3-0.4-0.3-0.7c0-4.7,1.9-9,5-12.1c3.1-3.1,7.3-5,12.1-5h0C78,28.4,85.7,36.1,85.7,45.5z"/>
<path class="st10" d="M85.7,45.5v1c-2.7,0-5.3-1.2-7-3.3l-4.1-4.9c-1.9,1.7-3.9,3.1-6.1,4.3V28.4h0C78,28.4,85.7,36.1,85.7,45.5z"/>
<path class="st10" d="M27.9,57.9c-0.7,0-0.9,0.9-0.3,1.2c1.3,0.7,2.8,1,4.4,1c1.6,0,3.1-0.4,4.4-1c0.6-0.3,0.4-1.2-0.3-1.2H27.9z"/>
<path class="st10" d="M72.9,45.6l-0.7,0.3c-0.5,0.2-1.1-0.1-1.3-0.6c-0.2-0.5,0.1-1.1,0.6-1.3c1.9-0.7,4-0.5,5.7,0.4c0.4,0.3,0.2,0.9-0.3,0.9l-0.8-0.1C75.1,45.1,74,45.2,72.9,45.6z"/>
</svg>
