<?xml version="1.0" encoding="utf-8"?>
<svg version="1.1" id="Layer_1" xmlns="http://www.w3.org/2000/svg" xmlns:xlink="http://www.w3.org/1999/xlink" x="0px" y="0px"
	 viewBox="0 0 73 87" style="enable-background:new 0 0 73 87;" xml:space="preserve">
<style type="text/css">
	.st0{fill:#FEC007;}
	.st1{fill:#3B8BC0;}
	.st2{fill:#174461;}
	.st3{fill:#4EB9FF;}
	.st4{fill:#FFF5D9;}
	.st5{fill:#9AD7FF;}
</style>
<path class="st0" d="M73,36.6C73,15.9,55.9-0.8,35.1,0C15.5,0.8-0.1,17.1,0,36.7C0,53,10.7,66.8,25.3,71.5l8.4,13.9
	c1.3,2.1,4.3,2.1,5.6,0l8.4-13.9C62.4,66.8,73,53,73,36.6z"/>
<path class="st1" d="M36,28.1c0,0-23.8-5-24-5v32l24,3.9V28.1z"/>
<polygon class="st2" points="36,28.1 36,58.9 60,55 60,23.1 "/>
<polygon class="st3" points="36,23.6 12,19.7 12,51.6 36,55.5 "/>
<polygon class="st1" points="36,23.6 36,55.5 60,51.6 60,19.7 "/>
<polygon class="st4" points="36,20.2 36,50.8 16.5,46.7 16.5,16.1 "/>
<path class="st1" d="M31.5,28c-0.1,0-0.2,0-0.2,0l-10.4-2.2c-0.6-0.1-1-0.7-0.9-1.3c0.1-0.6,0.7-1,1.3-0.9l10.4,2.2
	c0.6,0.1,1,0.7,0.9,1.3C32.4,27.6,32,28,31.5,28z M31.5,35.6c-0.1,0-0.2,0-0.2,0l-10.4-2.2c-0.6-0.1-1-0.7-0.9-1.3
	c0.1-0.6,0.7-1,1.3-0.9l10.4,2.2c0.6,0.1,1,0.7,0.9,1.3C32.4,35.3,32,35.6,31.5,35.6z M31.5,43.3c-0.1,0-0.2,0-0.2,0l-10.4-2.2
	c-0.6-0.1-1-0.7-0.9-1.3c0.1-0.6,0.7-1,1.3-0.9l10.4,2.2c0.6,0.1,1,0.7,0.9,1.3C32.4,42.9,32,43.3,31.5,43.3z"/>
<polygon class="st5" points="36,20.2 36,50.8 55.5,46.7 55.5,16.1 "/>
<path class="st2" d="M40.5,28c-0.5,0-1-0.4-1.1-0.9c-0.1-0.6,0.3-1.2,0.9-1.3l10.4-2.2c0.6-0.1,1.2,0.3,1.3,0.9
	c0.1,0.6-0.3,1.2-0.9,1.3L40.8,28C40.7,28,40.6,28,40.5,28z M40.5,35.6c-0.5,0-1-0.4-1.1-0.9c-0.1-0.6,0.3-1.2,0.9-1.3l10.4-2.2
	c0.6-0.1,1.2,0.3,1.3,0.9c0.1,0.6-0.3,1.2-0.9,1.3l-10.4,2.2C40.7,35.6,40.6,35.6,40.5,35.6z M40.5,43.3c-0.5,0-1-0.4-1.1-0.9
	c-0.1-0.6,0.3-1.2,0.9-1.3l10.4-2.2c0.6-0.1,1.2,0.3,1.3,0.9c0.1,0.6-0.3,1.2-0.9,1.3l-10.4,2.2C40.7,43.3,40.6,43.3,40.5,43.3z"/>
</svg>
