<?xml version="1.0" encoding="utf-8"?>
<svg version="1.1" xmlns="http://www.w3.org/2000/svg" xmlns:xlink="http://www.w3.org/1999/xlink" x="0px" y="0px"
	 viewBox="0 0 1300 670" style="enable-background:new 0 0 1300 670;" xml:space="preserve">
<style type="text/css">
	.st0{fill:#A6F3C6;}
</style>
<path class="st0" d="M973.1,526.8c-51.5-7.8-102.3-7.8-151-0.2c-48.6,7.7-96.5,23.3-142.3,46.4c-95.6,48.3-177.9,54.1-244.7,17.2
	c-49.7-27.5-90.1-77.8-119.9-149.5c-23.6-56.7-34.3-112.1-39.1-146.6c21.6-32.3,48.1-60,79.2-82.5c34.1-24.8,67.6-38.2,85.9-42.2
	c34.2-7.5,76.8-1.7,118,3.9c57.1,7.8,116.2,15.8,152.7-12.2c53-40.6,101.1-76,152.5-98.2c59-25.4,114-30.1,173.2-14.6
	c11,2.9,22.5,5.9,34.2,9c76.1,20.1,162.3,42.9,225.2,52.4l0.4-3c-62.7-9.4-148.9-32.2-224.9-52.3c-11.8-3.1-23.2-6.1-34.2-9
	c-31.5-8.2-61.6-10.8-92.1-7.6c-27.5,2.8-54.6,10.1-83,22.4c-51.8,22.3-100,57.8-153.2,98.5c-35.5,27.2-93.9,19.2-150.5,11.6
	c-41.5-5.6-84.4-11.4-119.1-3.8c-18.6,4.1-52.5,17.7-87,42.7c-30.5,22.1-56.6,49-78,80.5c-1-7.8-1.7-14.4-2.2-19.5
	c-4.3-46.3-29.7-80.9-75.3-102.7c-45.3-21.7-112-31.3-198.1-28.6l0.1,3c85.7-2.6,151.9,6.9,196.7,28.4
	c44.6,21.3,69.3,55.1,73.6,100.3c0.5,5.8,1.4,13.6,2.7,22.9c-10.4,15.6-19.6,32.3-27.7,50c-19.2,42.1-49.4,67.5-89.8,75.7
	c-40.6,8.2-92.7-0.8-154.9-26.6l-1.2,2.8c47.6,19.8,89.5,29.8,124.9,29.8c11.2,0,21.8-1,31.7-3c41.4-8.4,72.4-34.4,92-77.4
	c7.5-16.5,16.1-32.1,25.6-46.8c5.1,34.9,15.9,88.8,38.9,144c30.1,72.3,70.9,123.1,121.2,150.9c67.7,37.4,151,31.6,247.5-17.2
	c45.5-23,93-38.5,141.4-46.1c48.3-7.6,98.8-7.6,150,0.2c102.5,15.5,212.4,62.4,326.4,139.5l1.7-2.5
	C1186.3,589.5,1076.1,542.4,973.1,526.8z"/>
</svg>
